<?xml version="1.0" standalone="no"?>
<!DOCTYPE svg PUBLIC "-//W3C//DTD SVG 1.1//EN" "http://www.w3.org/Graphics/SVG/1.1/DTD/svg11.dtd" >
<svg xmlns="http://www.w3.org/2000/svg">
<metadata>
This is a custom SVG webfont generated by Font Squirrel.
Copyright   : Digitized data copyright The Monotype Corporation 19911995 All rights reserved ITC Franklin Gothic is a trademark of The International Typeface Corporation which may be registered in certain jurisdictions
</metadata>
<defs>
<font id="FranklinGothicHeavyRegular" horiz-adv-x="1201" >
<font-face units-per-em="2048" ascent="1638" descent="-410" />
<missing-glyph horiz-adv-x="512" />
<glyph unicode=" "  horiz-adv-x="512" />
<glyph unicode="&#x09;" horiz-adv-x="512" />
<glyph unicode="&#xa0;" horiz-adv-x="512" />
<glyph unicode="!" horiz-adv-x="646" d="M89 1365h474l-114 -905h-253zM130 0v365h386v-365h-386z" />
<glyph unicode="&#x22;" horiz-adv-x="845" d="M83 1365h295l-50 -576h-196zM467 1365h295l-50 -576h-196z" />
<glyph unicode="#" d="M31 408l39 213h224l27 151h-221l39 212h221l69 381h225l-69 -381h161l69 381h229l-70 -381h195l-38 -212h-195l-27 -151h198l-38 -213h-199l-74 -408h-229l74 408h-160l-74 -408h-226l74 408h-224zM519 621h161l27 151h-161z" />
<glyph unicode="$" d="M33 422l350 65q45 -154 227 -154q142 0 142 78q0 41 -33 64t-117 40q-330 67 -418.5 171t-88.5 239q0 149 97 264.5t296 145.5v171h192v-167q323 -36 422 -307l-313 -98q-48 127 -196 127q-124 0 -124 -80q0 -29 21 -49.5t116 -41.5q217 -47 311 -84.5t156.5 -127 t62.5 -211.5q0 -171 -121.5 -286.5t-334.5 -139.5v-173h-192v173q-362 43 -455 381z" />
<glyph unicode="%" horiz-adv-x="1455" d="M61 1026q0 163 76.5 256.5t203.5 93.5q132 0 204 -99.5t72 -256.5q0 -160 -77 -253.5t-203 -93.5q-127 0 -201.5 96.5t-74.5 256.5zM216 0l835 1365h183l-829 -1365h-189zM270 1034q0 -119 14.5 -165.5t53.5 -46.5q71 0 71 200q0 91 -13.5 148t-56.5 57q-69 0 -69 -193z M839 343q0 163 76 257t203 94q123 0 199.5 -93.5t76.5 -263.5q0 -159 -77 -253t-203 -94t-200.5 96.5t-74.5 256.5zM1048 353q0 -122 14.5 -168t53.5 -46q71 0 71 200q0 91 -13 148.5t-56 57.5q-70 0 -70 -192z" />
<glyph unicode="&#x26;" horiz-adv-x="1515" d="M51 401q0 265 316 375q-111 141 -111 266q0 158 119 251t327 93q196 0 314.5 -89t118.5 -246q0 -130 -78 -217.5t-180 -118.5l140 -149q68 67 103 232l354 -42q-66 -278 -225 -422q45 -38 129 -38q38 0 96 6v-294q-83 -22 -162 -22q-186 0 -321 110q-137 -117 -392 -117 q-239 0 -393.5 111.5t-154.5 310.5zM452 428q0 -69 46 -111.5t127 -42.5q96 0 154 55l-228 249q-99 -43 -99 -150zM617 1056q0 -65 99 -144q100 39 100 127q0 44 -28 73t-76 29q-42 0 -68.5 -25t-26.5 -60z" />
<glyph unicode="'" horiz-adv-x="461" d="M83 1365h295l-50 -576h-195z" />
<glyph unicode="(" horiz-adv-x="601" d="M11 528q0 466 316 837h270q-261 -383 -261 -841q0 -441 261 -845h-270q-316 405 -316 849z" />
<glyph unicode=")" horiz-adv-x="601" d="M4 -321q261 383 261 842q0 441 -261 844h270q316 -405 316 -848q0 -466 -316 -838h-270z" />
<glyph unicode="*" d="M102 943l80 259l319 -142l-37 333h273l-37 -333l319 142l80 -259l-333 -38l226 -239l-220 -162l-172 312l-171 -312l-220 162l226 239z" />
<glyph unicode="+" d="M103 563v253h370v384h255v-384h370v-253h-370v-384h-255v384h-370z" />
<glyph unicode="," horiz-adv-x="563" d="M92 0v363h380v-335l-219 -379h-157l157 351h-161z" />
<glyph unicode="-" horiz-adv-x="563" d="M28 359v314h507v-314h-507z" />
<glyph unicode="." horiz-adv-x="563" d="M92 0v365h380v-365h-380z" />
<glyph unicode="/" horiz-adv-x="1047" d="M-125 -321l920 1686h204l-923 -1686h-201z" />
<glyph unicode="0" d="M62 685q0 325 147.5 513t394.5 188q259 0 397 -200.5t138 -512.5q0 -318 -148.5 -506t-393.5 -188q-247 0 -391 194.5t-144 511.5zM461 703q0 -251 30.5 -342.5t109.5 -91.5q86 0 115 109.5t29 299.5q0 261 -38.5 341t-104.5 80q-80 0 -110.5 -105.5t-30.5 -290.5z" />
<glyph unicode="1" d="M130 0v304h337v649q-192 -85 -300 -100v307q291 63 395 226h296v-1082h322v-304h-1050z" />
<glyph unicode="2" d="M61 0v314l232 163q51 35 190.5 150.5t182 177.5t42.5 130q0 65 -37 104.5t-97 39.5q-150 0 -168 -236l-345 67q38 241 188.5 358.5t355.5 117.5q222 0 362.5 -119t140.5 -317q0 -132 -76.5 -251t-447.5 -364h532l-15 -335h-1040z" />
<glyph unicode="3" d="M25 417l356 44q35 -187 200 -187q75 0 122 39t47 105q0 44 -25.5 77.5t-54.5 47t-100 13.5h-166v285h140q112 0 144 40t32 83q0 54 -40 90t-105 36q-140 0 -171 -156l-330 52q45 192 190.5 296t344.5 104q224 0 360 -105t136 -280q0 -105 -57.5 -183t-146.5 -105 q246 -75 246 -321q0 -196 -149.5 -304.5t-387.5 -108.5q-478 0 -585 438z" />
<glyph unicode="4" d="M52 300v297l514 789h420v-789h192v-297h-192v-300h-376v300h-558zM351 597h259v408z" />
<glyph unicode="5" d="M49 398l352 43q35 -149 191 -149q79 0 123.5 48t44.5 117q0 78 -51 122t-121 44q-104 0 -160 -86l-313 44l60 784h911l-36 -337h-572l-16 -193q111 77 246 77q178 0 311 -122t133 -326q0 -215 -155 -350t-396 -135q-210 0 -363.5 110.5t-188.5 308.5z" />
<glyph unicode="6" d="M59 649q0 322 147 529.5t419 207.5q193 0 327.5 -105.5t162.5 -301.5l-349 -42q-16 164 -133 164q-169 0 -174 -355q80 126 275 126q185 0 300.5 -119t115.5 -306q0 -196 -146.5 -332t-377.5 -136q-169 0 -301 81.5t-199 240.5t-67 348zM462 418q0 -67 42 -114t110 -47 q69 0 110 47t41 115q0 67 -40.5 117t-106.5 50q-68 0 -112 -49.5t-44 -118.5z" />
<glyph unicode="7" d="M92 1023l29 342h981v-256q-149 -175 -256 -466t-107 -557q0 -26 4 -86h-451q0 241 117.5 526t315.5 497h-633z" />
<glyph unicode="8" d="M44 359q0 215 213 309q-171 95 -171 298q0 179 139.5 299.5t386.5 120.5q221 0 360.5 -100t139.5 -265q0 -75 -31.5 -139.5t-144.5 -139.5q221 -112 221 -337q0 -204 -158.5 -315t-417.5 -111t-398 105t-139 275zM399 389q0 -62 53 -104t151 -42q79 0 121 29.5t42 76.5 q0 78 -117 123l-155 59q-95 -58 -95 -142zM456 1016q0 -78 100 -118l125 -51q85 42 85 126q0 62 -47 102.5t-133 40.5q-61 0 -95.5 -29t-34.5 -71z" />
<glyph unicode="9" d="M55 916q0 207 142.5 338.5t382.5 131.5q276 0 417 -182.5t141 -481.5q0 -329 -146.5 -536t-436.5 -207q-190 0 -313.5 97.5t-150.5 267.5l350 56q22 -126 131 -126q86 0 131.5 80t45.5 220q0 16 -1 41q-90 -132 -266 -132q-185 0 -306 122t-121 311zM435 935 q0 -76 39.5 -119t100.5 -43t107 42.5t46 120.5q0 79 -42 125t-106 46q-60 0 -102.5 -43t-42.5 -129z" />
<glyph unicode=":" horiz-adv-x="563" d="M92 0v365h380v-365h-380zM92 653v364h380v-364h-380z" />
<glyph unicode=";" horiz-adv-x="563" d="M92 0v363h380v-335l-219 -379h-157l157 351h-161zM92 653v364h380v-364h-380z" />
<glyph unicode="&#x37e;" horiz-adv-x="563" d="M92 0v363h380v-335l-219 -379h-157l157 351h-161zM92 653v364h380v-364h-380z" />
<glyph unicode="&#x3c;" d="M137 567v236l887 458v-280l-589 -297l589 -297v-278z" />
<glyph unicode="=" d="M103 359v254h995v-254h-995zM103 739v254h995v-254h-995z" />
<glyph unicode="&#x3e;" d="M177 109v280l589 296l-589 298v278l887 -458v-237z" />
<glyph unicode="?" horiz-adv-x="1119" d="M21 917q84 469 545 469q232 0 366 -122.5t134 -303.5q0 -80 -26.5 -146t-68 -108.5t-134.5 -110.5q-71 -52 -90.5 -75.5t-26.5 -68.5h-332q0 121 21.5 174.5t88.5 113.5q101 91 126 135.5t25 103.5q0 62 -33 95.5t-82 33.5q-145 0 -146 -230zM375 0v365h383v-365h-383z " />
<glyph unicode="@" horiz-adv-x="1570" d="M68 682q0 309 217.5 516.5t526.5 207.5q294 0 492 -182.5t198 -441.5q0 -204 -121 -348.5t-287 -144.5q-113 0 -171 87q-77 -91 -185 -91q-121 0 -207 102.5t-86 269.5q0 171 97 279.5t233 108.5q86 0 158 -59l12 44h189l-55 -449q-5 -46 -5 -80q0 -42 39 -42 q72 0 139 91t67 228q0 200 -146 332t-358 132q-230 0 -388 -160.5t-158 -400.5q0 -221 147.5 -385t416.5 -164q208 0 428 115l66 -164q-241 -124 -494 -124q-351 0 -558 213.5t-207 509.5zM645 650q0 -74 29 -123.5t76 -49.5q69 0 119 67.5t50 154.5q0 70 -40.5 112 t-92.5 42q-60 0 -100.5 -56t-40.5 -147z" />
<glyph unicode="A" horiz-adv-x="1306" d="M7 0l422 1365h443l427 -1365h-427l-77 269h-366l-82 -269h-340zM500 567h222l-111 396z" />
<glyph unicode="B" horiz-adv-x="1316" d="M119 0v1365h693q216 0 315 -109t99 -249q0 -102 -57.5 -184.5t-171.5 -113.5q265 -64 265 -318q0 -152 -93.5 -271.5t-399.5 -119.5h-650zM505 304h204q76 0 111.5 37.5t35.5 84.5t-34.5 86.5t-126.5 39.5h-190v-248zM505 842h194q73 0 103 37t30 79q0 114 -140 114h-187 v-230z" />
<glyph unicode="C" horiz-adv-x="1287" d="M58 671q0 321 162 518t452 197q271 0 416.5 -150t164.5 -398l-391 -21q0 137 -52.5 198t-123.5 61q-198 0 -198 -398q0 -223 51.5 -303t144.5 -80q166 0 186 226l383 -23q-27 -251 -185.5 -385t-389.5 -134q-278 0 -449 184t-171 508z" />
<glyph unicode="D" horiz-adv-x="1391" d="M119 0v1365h528q344 0 515 -204t171 -472q0 -306 -183.5 -497.5t-476.5 -191.5h-554zM538 314h109q104 0 175.5 101t71.5 275q0 149 -63.5 257t-183.5 108h-109v-741z" />
<glyph unicode="E" horiz-adv-x="1193" d="M119 0v1365h1027v-315h-616v-198h498v-303h-498v-223h616v-326h-1027z" />
<glyph unicode="F" horiz-adv-x="1120" d="M119 0v1365h987v-325h-579v-222h445v-307h-445v-511h-408z" />
<glyph unicode="G" horiz-adv-x="1400" d="M58 663q0 306 164.5 514.5t489.5 208.5q244 0 393 -124t193 -352l-406 -40q-30 213 -187 213q-206 0 -206 -392q0 -237 66 -312.5t160 -75.5q76 0 129.5 46t54.5 126h-226v290h615v-765h-205q-25 85 -55 143q-127 -164 -376 -164q-264 0 -434 184.5t-170 499.5z" />
<glyph unicode="H" horiz-adv-x="1395" d="M119 0v1365h419v-502h320v502h419v-1365h-419v531h-320v-531h-419z" />
<glyph unicode="I" horiz-adv-x="657" d="M119 0v1365h419v-1365h-419z" />
<glyph unicode="J" horiz-adv-x="852" d="M14 12v326q88 -25 164 -25q90 0 128 41.5t38 150.5v860h403v-860q0 -198 -35.5 -301.5t-138.5 -164t-279 -60.5q-155 0 -280 33z" />
<glyph unicode="K" horiz-adv-x="1343" d="M119 0v1365h395v-564l377 564h376l-345 -499l428 -866h-459l-236 516l-141 -201v-315h-395z" />
<glyph unicode="L" horiz-adv-x="1103" d="M119 0v1365h419v-1030h538v-335h-957z" />
<glyph unicode="M" horiz-adv-x="1722" d="M119 0v1365h547l198 -725l189 725h550v-1365h-389v976l-253 -976h-266l-262 976v-976h-314z" />
<glyph unicode="N" horiz-adv-x="1405" d="M119 0v1365h396l318 -500q95 -149 144 -262q-32 175 -32 358v404h341v-1365h-341l-374 603q-72 116 -145 282q33 -132 33 -224v-661h-340z" />
<glyph unicode="O" horiz-adv-x="1415" d="M58 681q0 306 173.5 505.5t481.5 199.5q285 0 464.5 -188t179.5 -502q0 -325 -181 -521t-467 -196q-288 0 -469.5 191t-181.5 511zM509 670q0 -381 198 -381q106 0 152.5 92.5t46.5 338.5q0 356 -191 356q-206 0 -206 -406z" />
<glyph unicode="P" horiz-adv-x="1317" d="M119 0v1365h583q218 0 331.5 -50t180 -153t66.5 -231q0 -195 -136 -315t-363 -120h-237v-496h-425zM538 789h140q185 0 185 136q0 128 -171 128h-154v-264z" />
<glyph unicode="Q" horiz-adv-x="1415" d="M58 679q0 309 173.5 508t481.5 199q285 0 464.5 -188t179.5 -502q0 -381 -245 -581q20 -59 127 -59q48 0 113 13v-309q-111 -11 -174 -11q-112 0 -199.5 46.5t-129.5 197.5q-70 -14 -138 -14q-295 0 -474 195t-179 505zM509 670q0 -381 198 -381q106 0 152.5 92.5 t46.5 338.5q0 356 -191 356q-206 0 -206 -406z" />
<glyph unicode="R" horiz-adv-x="1413" d="M119 0v1365h713q236 0 366.5 -110.5t130.5 -291.5q0 -118 -48 -208.5t-194 -159.5l247 -595h-465l-199 522h-132v-522h-419zM538 814h179q79 0 127 33t48 97q0 131 -161 131h-193v-261z" />
<glyph unicode="S" horiz-adv-x="1244" d="M-22 395l389 70q49 -165 252 -165q158 0 158 84q0 44 -36.5 68.5t-130.5 43.5q-359 69 -461 180t-102 261q0 193 146.5 321t421.5 128q417 0 551 -335l-347 -105q-54 137 -219 137q-137 0 -137 -85q0 -38 31 -59t120 -40q245 -52 348 -92t172 -136.5t69 -227.5 q0 -207 -168 -335.5t-441 -128.5q-499 0 -616 416z" />
<glyph unicode="T" horiz-adv-x="963" d="M0 1038v327h963v-327h-283v-1038h-397v1038h-283z" />
<glyph unicode="U" horiz-adv-x="1331" d="M105 439v926h426v-877q0 -98 41.5 -143t132.5 -45q76 0 124.5 32.5t58 73.5t9.5 160v799h329v-904q0 -257 -152.5 -369.5t-397.5 -112.5q-258 0 -414.5 108t-156.5 352z" />
<glyph unicode="V" horiz-adv-x="1307" d="M7 1365h442l215 -744q22 -66 39 -130l252 874h345l-424 -1365h-427z" />
<glyph unicode="W" horiz-adv-x="1843" d="M14 1365h394l191 -787l186 787h330l202 -787l191 787h321l-362 -1365h-352l-191 753l-180 -753h-367z" />
<glyph unicode="X" horiz-adv-x="1322" d="M-27 0l440 707l-422 658h488l212 -367l220 367h376l-396 -634l459 -731h-487l-252 429l-254 -429h-384z" />
<glyph unicode="Y" horiz-adv-x="1211" d="M-41 1365h459l239 -449l229 449h366l-427 -787v-578h-407v578z" />
<glyph unicode="Z" horiz-adv-x="1204" d="M34 0v261l605 788h-559v316h1071v-265l-587 -778h606v-322h-1136z" />
<glyph unicode="[" horiz-adv-x="601" d="M76 -321v1686h471v-165h-173v-1356h173v-165h-471z" />
<glyph unicode="\" horiz-adv-x="1047" d="M48 1365h204l920 -1686h-201z" />
<glyph unicode="]" horiz-adv-x="601" d="M54 -156h173v1356h-173v165h471v-1686h-471v165z" />
<glyph unicode="^" horiz-adv-x="1024" d="M9 685l323 689h360l323 -689h-287l-216 470l-216 -470h-287z" />
<glyph unicode="_" horiz-adv-x="1024" d="M0 -94h1024v-239h-1024v239z" />
<glyph unicode="`" horiz-adv-x="1024" d="M206 1327l73 195l457 -224l-52 -137z" />
<glyph unicode="a" d="M50 282q0 161 146.5 260.5t519.5 119.5v23q0 67 -30.5 89t-89.5 22q-138 0 -154 -111l-364 34q78 319 531 319q123 0 226 -24.5t163 -76.5t80.5 -110t20.5 -223v-406q0 -116 31 -198h-380q-14 65 -14 142q-108 -163 -327 -163q-180 0 -269.5 92t-89.5 211zM461 313 q0 -92 101 -92q64 0 109 38t45 168v49q-255 -27 -255 -163z" />
<glyph unicode="b" horiz-adv-x="1203" d="M107 0v1365h393v-469q82 142 261 142q126 0 214 -66t131 -188.5t43 -257.5q0 -246 -110 -396.5t-328 -150.5q-215 0 -327 161q-32 -60 -52 -140h-225zM500 379q0 -150 116 -150q63 0 96.5 54.5t33.5 224.5q0 185 -38 232.5t-94 47.5q-44 0 -79 -34t-35 -99v-276z" />
<glyph unicode="c" horiz-adv-x="1071" d="M51 501q0 234 144.5 385.5t375.5 151.5q205 0 334 -114.5t148 -289.5l-349 -29q-22 161 -122 161q-64 0 -93.5 -58.5t-29.5 -203.5q0 -125 29.5 -185t102.5 -60q107 0 127 151l340 -29q-24 -178 -149.5 -290t-333.5 -112q-233 0 -378.5 146.5t-145.5 375.5z" />
<glyph unicode="d" horiz-adv-x="1203" d="M55 516q0 245 110 389t291 144q151 0 249 -115v431h393v-1365h-374v135q-83 -156 -274 -156q-176 0 -285.5 137.5t-109.5 399.5zM464 491q0 -247 126 -247q48 0 81.5 39t33.5 119v252q0 137 -113 137q-79 0 -103.5 -87t-24.5 -213z" />
<glyph unicode="e" d="M51 496q0 228 151 385t403 157q244 0 394.5 -148t150.5 -403q0 -21 -1 -58h-681q2 -96 34 -142.5t122 -46.5q130 0 153 125l372 -25q-33 -150 -168.5 -255.5t-366.5 -105.5q-257 0 -410 148.5t-153 368.5zM467 629h284q-1 103 -41.5 138.5t-100.5 35.5q-142 0 -142 -174z " />
<glyph unicode="f" horiz-adv-x="803" d="M7 758v259h152q0 126 11 186.5t55 116t118 85t199 29.5q134 0 257 -21v-261q-95 13 -142 13t-86 -19t-39 -93v-36h260v-259h-257v-758h-376v758h-152z" />
<glyph unicode="g" horiz-adv-x="1166" d="M2 -96q0 139 147 194q-95 67 -95 159q0 150 195 226q-163 71 -163 236q0 151 132 235t362 84q105 0 191 -21q35 239 253 239q50 0 141 -8l-10 -273l-19 1q-54 3 -77 3q-93 0 -112 -37q114 -94 114 -227q0 -156 -123.5 -234.5t-335.5 -78.5q-5 0 -52 2q-44 2 -46 2 q-97 0 -97 -50q0 -44 86 -47l327 -14q179 -8 262.5 -100t83.5 -215q0 -146 -124.5 -238.5t-484.5 -92.5q-555 0 -555 255zM332 -50q0 -59 78.5 -76t209.5 -17q124 0 159.5 21t35.5 58q0 26 -16 43.5t-76 20.5l-244 13q-22 1 -44 1q-103 0 -103 -64zM460 712q0 -121 121 -121 q116 0 116 123q0 126 -119 126q-118 0 -118 -128z" />
<glyph unicode="h" horiz-adv-x="1210" d="M105 0v1365h399v-468q108 141 282 141q88 0 154.5 -30.5t102.5 -78.5t48.5 -93t12.5 -174v-662h-398v612q0 84 -18.5 115.5t-71.5 31.5q-41 0 -71.5 -24.5t-35.5 -50.5t-5 -109v-575h-399z" />
<glyph unicode="i" horiz-adv-x="609" d="M105 0v1017h399v-1017h-399zM105 1092v316h399v-316h-399z" />
<glyph unicode="j" horiz-adv-x="609" d="M-87 -45q44 -19 88 -19q105 0 105 124v957h398v-957q0 -145 -25.5 -225t-113.5 -135t-249 -55q-105 0 -203 19v291zM106 1092v314h398v-314h-398z" />
<glyph unicode="k" horiz-adv-x="1175" d="M105 0v1365h374v-551q0 -23 -3 -184q36 51 73 93l255 294h352l-307 -350l342 -667h-412l-191 407l-109 -127v-280h-374z" />
<glyph unicode="l" horiz-adv-x="603" d="M105 0v1365h393v-1365h-393z" />
<glyph unicode="m" horiz-adv-x="1752" d="M105 0v1017h358v-137q96 158 279 158q197 0 286 -158q99 158 304 158q98 0 172.5 -41t108 -105.5t33.5 -199.5v-692h-387v636q0 64 -18.5 89.5t-65.5 25.5q-112 0 -112 -163v-588h-383v636q0 122 -94 122q-97 0 -97 -122v-636h-384z" />
<glyph unicode="n" horiz-adv-x="1203" d="M105 0v1017h370v-144q82 165 293 165q111 0 187.5 -42.5t109.5 -110t33 -234.5v-651h-399v640q0 79 -24.5 101t-61.5 22q-109 0 -109 -152v-611h-399z" />
<glyph unicode="o" horiz-adv-x="1217" d="M51 506q0 228 155.5 380t404.5 152q251 0 403.5 -150t152.5 -376q0 -228 -154.5 -380.5t-410.5 -152.5q-253 0 -402 157.5t-149 369.5zM476 509q0 -175 33 -231.5t99 -56.5q93 0 113.5 96.5t20.5 201.5q0 143 -29 206t-104 63q-69 0 -101 -65t-32 -214z" />
<glyph unicode="p" d="M105 -321v1338h367v-144q77 165 287 165q182 0 285 -141.5t103 -385.5t-105.5 -388t-278.5 -144q-170 0 -259 130v-430h-399zM504 372q0 -68 31 -105.5t77 -37.5q72 0 99 66.5t27 204.5q0 159 -31 223.5t-93 64.5q-37 0 -73.5 -29t-36.5 -95v-292z" />
<glyph unicode="q" horiz-adv-x="1206" d="M55 505q0 221 113 377t338 156q220 0 308 -159q41 70 66 138h231q-10 -46 -10 -138v-1200h-393v430q-65 -130 -240 -130q-197 0 -305 147t-108 379zM463 506q0 -173 33.5 -229t89.5 -56q44 0 83 34t39 116v273q0 77 -34 118.5t-79 41.5q-64 0 -98 -63t-34 -235z" />
<glyph unicode="r" horiz-adv-x="781" d="M105 0v1017h332v-210q57 229 265 229q21 0 58 -4v-355q-42 10 -75 10q-198 0 -198 -221v-466h-382z" />
<glyph unicode="s" horiz-adv-x="1085" d="M15 288l315 43q27 -110 214 -110q155 0 155 60q0 26 -30 40.5t-142 29.5q-310 43 -387 134.5t-77 203.5q0 156 130 252.5t341 96.5q370 0 472 -267l-302 -57q-42 90 -177 90q-64 0 -95.5 -17.5t-31.5 -34.5q0 -50 96 -61q250 -28 339 -57t152 -106t63 -186 q0 -167 -139.5 -265t-384.5 -98q-413 0 -511 309z" />
<glyph unicode="t" horiz-adv-x="761" d="M-7 758v259h152l6 331l379 6v-337h203v-259h-203v-375q0 -77 29 -91.5t60 -14.5q48 0 114 17v-284q-118 -23 -232 -23q-184 0 -270.5 79t-86.5 252l1 119v321h-152z" />
<glyph unicode="u" horiz-adv-x="1199" d="M105 290v727h399v-640q0 -60 16.5 -84.5t64.5 -24.5q51 0 83 36.5t32 102.5v610h394v-1017h-369v167q-81 -188 -316 -188q-145 0 -224.5 80.5t-79.5 230.5z" />
<glyph unicode="v" horiz-adv-x="1037" d="M-7 1017h410l145 -432q18 -53 32 -105q5 18 15 46q2 4 13 38l150 453h286l-373 -1017h-298z" />
<glyph unicode="w" horiz-adv-x="1521" d="M14 1017h392l134 -498l128 498h294l127 -498l141 498h277l-322 -1017h-287l-133 551l-139 -551h-284z" />
<glyph unicode="x" horiz-adv-x="1133" d="M-14 0l357 539l-313 478h444l105 -190q7 -13 17 -30q5 -8 14 -26q11 17 27 46q2 5 11 21l104 179h329l-298 -462l363 -555h-450l-187 324l-199 -324h-324z" />
<glyph unicode="y" horiz-adv-x="1049" d="M-7 1017h427l168 -542l176 542h291l-399 -1102q-46 -125 -132 -195.5t-265 -70.5q-43 0 -200 9v283q78 -12 144 -12q172 0 172 76q0 25 -17 69z" />
<glyph unicode="z" horiz-adv-x="965" d="M34 0v221l429 551q-77 -3 -104 -3h-290v248h846v-214l-438 -552l53 1q16 1 29 1h372v-253h-897z" />
<glyph unicode="{" horiz-adv-x="601" d="M-7 460v144q112 17 112 148v334q0 149 71 214.5t238 65.5q29 0 188 -5v-159l-43 1q-88 0 -116 -12t-36.5 -33.5t-8.5 -88.5v-302q0 -61 -18.5 -127t-103.5 -118q65 -40 93.5 -91t28.5 -154v-297q0 -88 25.5 -110.5t147.5 -22.5h31v-164l-68 -1q-90 -3 -116 -3 q-170 0 -241.5 65.5t-71.5 213.5v335q0 98 -35.5 129.5t-76.5 37.5z" />
<glyph unicode="|" horiz-adv-x="1024" d="M371 -341v1706h283v-1706h-283z" />
<glyph unicode="}" horiz-adv-x="601" d="M-1 -157l42 -1q115 0 138.5 25t23.5 109v301q0 61 18.5 127t103.5 118q-65 41 -93.5 91.5t-28.5 153.5v297q0 85 -23.5 109.5t-138.5 24.5q-14 0 -42 -1v164q7 0 69 2q90 3 119 3q169 0 239 -66t70 -214v-334q0 -97 34 -129t78 -38v-145q-112 -16 -112 -147v-335 q0 -144 -67.5 -211.5t-245.5 -67.5q-24 0 -184 4v160z" />
<glyph unicode="~" d="M102 578q65 166 137.5 227t172.5 61q70 0 216 -54q128 -47 173 -47q87 0 142 105l156 -96q-117 -278 -326 -278q-53 0 -204 54q-133 47 -171 47q-88 0 -144 -123z" />
<glyph unicode="&#xa1;" horiz-adv-x="646" d="M83 -321l113 905h253l108 -905h-474zM130 680v365h386v-365h-386z" />
<glyph unicode="&#xa2;" d="M122 715q0 198 103.5 332.5t292.5 172.5v204h191v-204q321 -53 369 -368l-334 -26q-3 66 -36.5 108t-83.5 42q-127 0 -127 -249q0 -236 128 -236q109 0 132 137l321 -27q-58 -314 -369 -367v-257h-191v257q-201 44 -298.5 174.5t-97.5 306.5z" />
<glyph unicode="&#xa3;" d="M38 0v294h60q102 0 146 54t44 123q0 59 -18 143h-172v242h130q-14 85 -14 140q0 198 149.5 310.5t351.5 112.5q149 0 269.5 -70t167.5 -218l-302 -107q-41 112 -122 112q-50 0 -80.5 -32t-30.5 -87q0 -59 21 -161h212v-242h-181q0 -108 -31.5 -181.5t-111.5 -138.5h169 q80 0 122 41t59 127l321 -62q-43 -193 -168.5 -296.5t-301.5 -103.5h-689z" />
<glyph unicode="&#xa4;" horiz-adv-x="1365" d="M41 282l212 211q-90 131 -90 280q0 154 90 282l-212 212l144 145l212 -211q132 88 286 88t282 -88l211 211l144 -145l-209 -209q93 -141 93 -285q0 -150 -89 -280l211 -211l-143 -144l-210 209q-138 -91 -289 -91q-150 0 -287 91l-212 -209zM405 773q0 -115 82 -197.5 t196 -82.5q115 0 197 82t82 198q0 115 -81.5 197t-196.5 82q-116 0 -197.5 -82.5t-81.5 -196.5z" />
<glyph unicode="&#xa5;" horiz-adv-x="1199" d="M21 1365h391l238 -490l230 490h298l-221 -450h162v-205h-262l-47 -96h309v-204h-327v-410h-353v410h-332v204h312l-50 96h-262v205h153z" />
<glyph unicode="&#xa6;" horiz-adv-x="1024" d="M371 314h283v-655h-283v655zM371 652v713h283v-713h-283z" />
<glyph unicode="&#xa7;" d="M117 -40l295 49q70 -130 222 -130q74 0 116.5 28t42.5 69q0 45 -43.5 77t-181.5 84q-174 65 -257 112.5t-126.5 118t-43.5 172.5q0 142 120 285q-99 81 -99 222q0 160 130.5 249.5t334.5 89.5q319 0 434 -245l-247 -71q-52 113 -194 113q-58 0 -95.5 -21t-37.5 -52 q0 -40 35.5 -65.5t205.5 -93.5q145 -58 204 -94t101.5 -111t42.5 -163q0 -140 -113 -262q144 -99 144 -275q0 -172 -135.5 -279.5t-360.5 -107.5q-364 0 -494 301zM435 609q0 -32 30.5 -61.5t265.5 -120.5q61 45 61 91q0 52 -56.5 85t-245.5 106q-55 -45 -55 -100z" />
<glyph unicode="&#xa8;" horiz-adv-x="1024" d="M199 1320q0 53 38.5 92t94.5 39t94 -39.5t38 -92.5q0 -54 -39 -92.5t-93 -38.5q-55 0 -94 38.5t-39 93.5zM559 1320q0 54 39 92.5t94 38.5t93.5 -38.5t38.5 -92.5q0 -55 -39 -93.5t-92 -38.5q-55 0 -94.5 39t-39.5 93z" />
<glyph unicode="&#xa9;" horiz-adv-x="1584" d="M89 683q0 288 206 495.5t497 207.5t497 -207t206 -496q0 -290 -206.5 -497t-496.5 -207q-291 0 -497 206.5t-206 497.5zM252 683q0 -226 158 -386t382 -160q222 0 381 160.5t159 385.5q0 224 -158.5 384.5t-381.5 160.5t-381.5 -160.5t-158.5 -384.5zM404 676 q0 192 103.5 310t288.5 118q332 0 371 -336l-265 -13q-2 153 -99 153q-111 0 -111 -228q0 -219 111 -219q95 0 105 134l259 -15q-17 -156 -119.5 -237.5t-248.5 -81.5q-179 0 -287 111t-108 304z" />
<glyph unicode="&#xaa;" horiz-adv-x="786" d="M41 939q0 205 413 225q0 50 -13 64.5t-51 14.5q-78 0 -91 -60q-1 -2 -2 -6l-240 22q48 194 341 194q132 0 205 -36.5t91.5 -79.5t18.5 -147v-239q0 -70 22 -124h-259q-7 32 -9 62q-60 -74 -196 -74q-103 0 -166.5 52.5t-63.5 131.5zM311 958q0 -54 58 -54q56 0 74 31.5 t18 117.5q-150 -18 -150 -95z" />
<glyph unicode="&#xab;" horiz-adv-x="771" d="M62 491l179 293h140l-107 -293l107 -271h-140zM381 491l174 293h141l-105 -293l105 -271h-141z" />
<glyph unicode="&#xac;" d="M157 301v253h887v-554h-281v301h-606z" />
<glyph unicode="&#xad;" horiz-adv-x="563" d="M28 359v314h507v-314h-507z" />
<glyph unicode="&#xae;" horiz-adv-x="1584" d="M89 683q0 288 206 495.5t497 207.5t497 -207t206 -496q0 -290 -206.5 -497t-496.5 -207q-291 0 -497 206.5t-206 497.5zM252 683q0 -226 158 -386t382 -160q222 0 381 160.5t159 385.5q0 224 -158.5 384.5t-381.5 160.5t-381.5 -160.5t-158.5 -384.5zM444 300v765h403 q129 0 208.5 -60t79.5 -172q0 -139 -134 -201l139 -332h-274l-111 292h-63v-292h-248zM692 755h90q95 0 95 72q0 71 -87 71h-98v-143z" />
<glyph unicode="&#xaf;" horiz-adv-x="1024" d="M0 1591v239h1024v-239h-1024z" />
<glyph unicode="&#xb0;" d="M297 1087q0 123 89 211t215 88q125 0 214.5 -87.5t89.5 -212.5q0 -124 -89.5 -212t-214.5 -88q-126 0 -215 88.5t-89 212.5zM464 1087q0 -58 40.5 -98.5t95.5 -40.5q57 0 97.5 40t40.5 98t-41 99t-97 41q-57 0 -96.5 -41t-39.5 -98z" />
<glyph unicode="&#xb1;" d="M103 -120v254h995v-254h-995zM103 583v254h370v363h255v-363h370v-254h-370v-363h-255v363h-370z" />
<glyph unicode="&#xb2;" horiz-adv-x="792" d="M39 546v194l154 98q267 170 267 268q0 79 -81 79q-96 0 -105 -141l-235 42q25 148 124.5 220t234.5 72q147 0 239.5 -72.5t92.5 -191.5q0 -82 -49.5 -151.5t-276.5 -207.5h332l-10 -209h-687z" />
<glyph unicode="&#xb3;" horiz-adv-x="792" d="M15 803l243 28q17 -111 126 -111q105 0 105 83q0 79 -113 79h-113v167h96q109 0 109 71q0 72 -89 72q-88 0 -106 -93l-226 32q28 119 125.5 183t229.5 64q149 0 238.5 -64t89.5 -169q0 -124 -120 -171q146 -48 146 -190q0 -120 -99 -185t-256 -65q-316 0 -386 269z" />
<glyph unicode="&#xb4;" horiz-adv-x="1024" d="M288 1298l457 224l73 -195l-478 -166z" />
<glyph unicode="&#xb5;" d="M99 -341v1351h399v-514q0 -172 21 -219.5t80 -47.5q62 0 83.5 46.5t21.5 220.5v514h399v-1010h-310l-13 150q-15 -84 -48.5 -127.5t-107.5 -43.5q-96 0 -140 131v-451h-385z" />
<glyph unicode="&#xb6;" d="M-5 1014q0 137 66.5 222.5t160 107t320.5 21.5h664v-158h-137v-1528h-151v1528h-141v-1528h-158v974h-86q-192 0 -260.5 6t-134 47t-104.5 122t-39 186zM377 1006q0 -81 28.5 -127t70.5 -57.5t143 -11.5v397q-111 0 -150.5 -13.5t-65.5 -58t-26 -129.5z" />
<glyph unicode="&#xb7;" horiz-adv-x="380" d="M0 333v365h380v-365h-380z" />
<glyph unicode="&#xb8;" horiz-adv-x="1024" d="M264 -354l38 82q83 -45 156 -45q81 0 81 65q0 79 -129 79q-10 0 -28 -1l66 174h112l-36 -100q21 1 34 1q68 0 109.5 -43.5t41.5 -108.5q0 -81 -60.5 -125t-156.5 -44q-117 0 -228 66z" />
<glyph unicode="&#xb9;" horiz-adv-x="792" d="M109 1050v193q194 39 259 135h201v-641h182v-191h-639v191h192v371q-116 -48 -195 -58z" />
<glyph unicode="&#xba;" horiz-adv-x="796" d="M41 1072q0 137 99.5 229t258.5 92q157 0 256 -89t99 -234q0 -130 -98 -222.5t-262 -92.5q-168 0 -260.5 97.5t-92.5 219.5zM326 1073q0 -94 17 -128t54 -34q42 0 57 40.5t15 120.5q0 95 -17 127.5t-54 32.5q-72 0 -72 -159z" />
<glyph unicode="&#xbb;" horiz-adv-x="771" d="M75 220l106 292l-106 272h142l173 -272l-173 -292h-142zM390 220l107 292l-107 272h141l178 -272l-178 -292h-141z" />
<glyph unicode="&#xbc;" horiz-adv-x="1802" d="M17 1050v193q194 39 259 135h201v-641h141v-191h-598v191h192v371q-116 -48 -195 -58zM339 0l834 1365h211l-829 -1365h-216zM1042 177v184l337 470h281v-466h126v-188h-126v-177h-248v177h-370zM1222 344h212v297z" />
<glyph unicode="&#xbd;" horiz-adv-x="1802" d="M30 1050v193q194 39 259 135h201v-641h154v-191h-611v191h192v371q-116 -48 -195 -58zM365 0l835 1365h211l-829 -1365h-217zM1074 0v194l154 98q121 78 194 145.5t73 121.5q0 80 -81 80q-96 0 -105 -141l-235 42q25 148 124 220t235 72q148 0 240 -72t92 -192 q0 -81 -49 -151t-277 -208h332l-10 -209h-687z" />
<glyph unicode="&#xbe;" horiz-adv-x="1802" d="M-5 803l243 28q17 -111 126 -111q105 0 105 83q0 79 -113 79h-113v167h96q109 0 109 71q0 72 -89 72q-88 0 -106 -93l-226 32q28 119 125.5 183t229.5 64q149 0 238.5 -64t89.5 -169q0 -124 -120 -171q146 -48 146 -190q0 -120 -99 -185t-256 -65q-316 0 -386 269zM423 0 l835 1365h211l-830 -1365h-216zM1058 177v184l337 470h281v-466h126v-188h-126v-177h-248v177h-370zM1238 344h212v297z" />
<glyph unicode="&#xbf;" horiz-adv-x="1119" d="M54 85q0 121 50.5 196t178.5 169q76 55 93 78.5t24 65.5h332q-1 -125 -22 -177t-88 -112q-101 -91 -126 -135.5t-25 -103.5q0 -62 33.5 -95.5t81.5 -33.5q144 0 146 231l367 -40q-84 -469 -545 -469q-232 0 -366 122t-134 304zM362 680v365h383v-365h-383z" />
<glyph unicode="&#xc0;" horiz-adv-x="1306" d="M7 0l422 1365h443l427 -1365h-427l-77 269h-366l-82 -269h-340zM500 567h222l-111 396zM347 1648l73 195l457 -224l-52 -137z" />
<glyph unicode="&#xc1;" horiz-adv-x="1306" d="M7 0l422 1365h443l427 -1365h-427l-77 269h-366l-82 -269h-340zM500 567h222l-111 396zM429 1619l457 224l73 -195l-478 -166z" />
<glyph unicode="&#xc2;" horiz-adv-x="1306" d="M7 0l422 1365h443l427 -1365h-427l-77 269h-366l-82 -269h-340zM500 567h222l-111 396zM249 1516l401 318l402 -318l-232 -21l-170 130l-169 -130z" />
<glyph unicode="&#xc3;" horiz-adv-x="1306" d="M7 0l422 1365h443l427 -1365h-427l-77 269h-366l-82 -269h-340zM500 567h222l-111 396zM286 1630q121 128 233 128q58 0 136 -40q84 -43 118 -43q64 0 148 79l100 -117q-122 -128 -244 -128q-62 0 -157 49q-64 33 -100 33q-70 0 -136 -78z" />
<glyph unicode="&#xc4;" horiz-adv-x="1306" d="M7 0l422 1365h443l427 -1365h-427l-77 269h-366l-82 -269h-340zM500 567h222l-111 396zM340 1643q0 53 38.5 92t94.5 39t94 -39.5t38 -92.5q0 -54 -39 -92.5t-93 -38.5q-55 0 -94 38.5t-39 93.5zM700 1643q0 54 39 92.5t94 38.5t93.5 -38.5t38.5 -92.5q0 -55 -39 -93.5 t-92 -38.5q-55 0 -94.5 39t-39.5 93z" />
<glyph unicode="&#xc5;" horiz-adv-x="1306" d="M7 0l422 1365h443l427 -1365h-427l-77 269h-366l-82 -269h-340zM500 567h222l-111 396zM455 1668q0 83 59 142t142 59q84 0 143 -58.5t59 -141.5q0 -84 -59.5 -142.5t-142.5 -58.5t-142 58.5t-59 141.5zM581 1669q0 -31 22 -53t53 -22t53.5 22t22.5 55q0 29 -22.5 51 t-53.5 22t-53 -22.5t-22 -52.5z" />
<glyph unicode="&#xc6;" horiz-adv-x="1865" d="M-27 0l609 1365h1222v-315h-609v-198h493v-303h-493v-223h623v-326h-1037v283h-326l-127 -283h-355zM566 568h215v482z" />
<glyph unicode="&#xc7;" horiz-adv-x="1287" d="M58 671q0 321 162 518t452 197q271 0 416.5 -150t164.5 -398l-391 -21q0 137 -52.5 198t-123.5 61q-198 0 -198 -398q0 -223 51.5 -303t144.5 -80q166 0 186 226l383 -23q-27 -244 -177 -377t-369 -141l-31 -85q22 2 36 2q70 0 113 -45.5t43 -113.5q0 -84 -63 -130 t-162 -46q-121 0 -238 70l40 85q86 -47 163 -47q83 0 83 68q0 44 -42.5 63t-91.5 19q-10 0 -29 -1l63 166q-252 31 -392.5 214.5t-140.5 471.5z" />
<glyph unicode="&#xc8;" horiz-adv-x="1193" d="M119 0v1365h1027v-315h-616v-198h498v-303h-498v-223h616v-326h-1027zM302 1648l73 195l457 -224l-52 -137z" />
<glyph unicode="&#xc9;" horiz-adv-x="1193" d="M119 0v1365h1027v-315h-616v-198h498v-303h-498v-223h616v-326h-1027zM449 1619l457 224l73 -195l-478 -166z" />
<glyph unicode="&#xca;" horiz-adv-x="1193" d="M119 0v1365h1027v-315h-616v-198h498v-303h-498v-223h616v-326h-1027zM231 1516l401 318l402 -318l-232 -21l-170 130l-169 -130z" />
<glyph unicode="&#xcb;" horiz-adv-x="1193" d="M119 0v1365h1027v-315h-616v-198h498v-303h-498v-223h616v-326h-1027zM313 1643q0 53 38.5 92t94.5 39t94 -39.5t38 -92.5q0 -54 -39 -92.5t-93 -38.5q-55 0 -94 38.5t-39 93.5zM673 1643q0 54 39 92.5t94 38.5t93.5 -38.5t38.5 -92.5q0 -55 -39 -93.5t-92 -38.5 q-55 0 -94.5 39t-39.5 93z" />
<glyph unicode="&#xcc;" horiz-adv-x="657" d="M119 0v1365h419v-1365h-419zM35 1648l73 195l457 -224l-52 -137z" />
<glyph unicode="&#xcd;" horiz-adv-x="657" d="M119 0v1365h419v-1365h-419zM117 1619l457 224l73 -195l-478 -166z" />
<glyph unicode="&#xce;" horiz-adv-x="657" d="M119 0v1365h419v-1365h-419zM-18 1516l401 318l402 -318l-232 -21l-170 130l-169 -130z" />
<glyph unicode="&#xcf;" horiz-adv-x="657" d="M119 0v1365h419v-1365h-419zM33 1643q0 53 38.5 92t94.5 39t94 -39.5t38 -92.5q0 -54 -39 -92.5t-93 -38.5q-55 0 -94 38.5t-39 93.5zM393 1643q0 54 39 92.5t94 38.5t93.5 -38.5t38.5 -92.5q0 -55 -39 -93.5t-92 -38.5q-55 0 -94.5 39t-39.5 93z" />
<glyph unicode="&#xd0;" horiz-adv-x="1391" d="M7 601v200h112v564h528q344 0 515 -204t171 -472q0 -306 -183.5 -497.5t-475.5 -191.5h-555v601h-112zM538 314h109q104 0 175.5 101t71.5 275q0 140 -60.5 252.5t-186.5 112.5h-109v-254h195v-200h-195v-287z" />
<glyph unicode="&#xd1;" horiz-adv-x="1405" d="M119 0v1365h396l318 -500q95 -149 144 -262q-32 175 -32 358v404h341v-1365h-341l-374 603q-72 116 -145 282q33 -132 33 -224v-661h-340zM335 1630q121 128 233 128q58 0 136 -40q84 -43 118 -43q64 0 148 79l100 -117q-122 -128 -244 -128q-62 0 -157 49 q-64 33 -100 33q-70 0 -136 -78z" />
<glyph unicode="&#xd2;" horiz-adv-x="1415" d="M58 681q0 306 173.5 505.5t481.5 199.5q285 0 464.5 -188t179.5 -502q0 -325 -181 -521t-467 -196q-288 0 -469.5 191t-181.5 511zM509 670q0 -381 198 -381q106 0 152.5 92.5t46.5 338.5q0 356 -191 356q-206 0 -206 -406zM386 1648l73 195l457 -224l-52 -137z" />
<glyph unicode="&#xd3;" horiz-adv-x="1415" d="M58 681q0 306 173.5 505.5t481.5 199.5q285 0 464.5 -188t179.5 -502q0 -325 -181 -521t-467 -196q-288 0 -469.5 191t-181.5 511zM509 670q0 -381 198 -381q106 0 152.5 92.5t46.5 338.5q0 356 -191 356q-206 0 -206 -406zM525 1619l457 224l73 -195l-478 -166z" />
<glyph unicode="&#xd4;" horiz-adv-x="1415" d="M58 681q0 306 173.5 505.5t481.5 199.5q285 0 464.5 -188t179.5 -502q0 -325 -181 -521t-467 -196q-288 0 -469.5 191t-181.5 511zM509 670q0 -381 198 -381q106 0 152.5 92.5t46.5 338.5q0 356 -191 356q-206 0 -206 -406zM306 1516l401 318l402 -318l-232 -21l-170 130 l-169 -130z" />
<glyph unicode="&#xd5;" horiz-adv-x="1415" d="M58 681q0 306 173.5 505.5t481.5 199.5q285 0 464.5 -188t179.5 -502q0 -325 -181 -521t-467 -196q-288 0 -469.5 191t-181.5 511zM509 670q0 -381 198 -381q106 0 152.5 92.5t46.5 338.5q0 356 -191 356q-206 0 -206 -406zM354 1630q121 128 233 128q58 0 136 -40 q84 -43 118 -43q64 0 148 79l100 -117q-122 -128 -244 -128q-62 0 -157 49q-64 33 -100 33q-70 0 -136 -78z" />
<glyph unicode="&#xd6;" horiz-adv-x="1415" d="M58 681q0 306 173.5 505.5t481.5 199.5q285 0 464.5 -188t179.5 -502q0 -325 -181 -521t-467 -196q-288 0 -469.5 191t-181.5 511zM509 670q0 -381 198 -381q106 0 152.5 92.5t46.5 338.5q0 356 -191 356q-206 0 -206 -406zM388 1643q0 53 38.5 92t94.5 39t94 -39.5 t38 -92.5q0 -54 -39 -92.5t-93 -38.5q-55 0 -94 38.5t-39 93.5zM748 1643q0 54 39 92.5t94 38.5t93.5 -38.5t38.5 -92.5q0 -55 -39 -93.5t-92 -38.5q-55 0 -94.5 39t-39.5 93z" />
<glyph unicode="&#xd7;" d="M140 418l281 281l-281 280l180 180l281 -280l281 280l180 -180l-281 -280l281 -281l-180 -180l-281 281l-281 -281z" />
<glyph unicode="&#xd8;" horiz-adv-x="1415" d="M58 679q0 312 176 509.5t470 197.5q169 0 290 -56l90 149h211l-151 -249q213 -194 213 -534q0 -327 -182.5 -522t-459.5 -195q-164 0 -293 60l-92 -152h-214l154 253q-212 196 -212 539zM509 675q0 -59 7 -131l301 496q-42 36 -101 36q-207 0 -207 -401zM598 328 q43 -39 109 -39q106 0 152.5 92.5t46.5 338.5q0 50 -4 110z" />
<glyph unicode="&#xd9;" horiz-adv-x="1331" d="M105 439v926h426v-877q0 -98 41.5 -143t132.5 -45q76 0 124.5 32.5t58 73.5t9.5 160v799h329v-904q0 -257 -152.5 -369.5t-397.5 -112.5q-258 0 -414.5 108t-156.5 352zM363 1648l73 195l457 -224l-52 -137z" />
<glyph unicode="&#xda;" horiz-adv-x="1331" d="M105 439v926h426v-877q0 -98 41.5 -143t132.5 -45q76 0 124.5 32.5t58 73.5t9.5 160v799h329v-904q0 -257 -152.5 -369.5t-397.5 -112.5q-258 0 -414.5 108t-156.5 352zM498 1619l457 224l73 -195l-478 -166z" />
<glyph unicode="&#xdb;" horiz-adv-x="1331" d="M105 439v926h426v-877q0 -98 41.5 -143t132.5 -45q76 0 124.5 32.5t58 73.5t9.5 160v799h329v-904q0 -257 -152.5 -369.5t-397.5 -112.5q-258 0 -414.5 108t-156.5 352zM291 1516l401 318l402 -318l-232 -21l-170 130l-169 -130z" />
<glyph unicode="&#xdc;" horiz-adv-x="1331" d="M105 439v926h426v-877q0 -98 41.5 -143t132.5 -45q76 0 124.5 32.5t58 73.5t9.5 160v799h329v-904q0 -257 -152.5 -369.5t-397.5 -112.5q-258 0 -414.5 108t-156.5 352zM352 1643q0 53 38.5 92t94.5 39t94 -39.5t38 -92.5q0 -54 -39 -92.5t-93 -38.5q-55 0 -94 38.5 t-39 93.5zM712 1643q0 54 39 92.5t94 38.5t93.5 -38.5t38.5 -92.5q0 -55 -39 -93.5t-92 -38.5q-55 0 -94.5 39t-39.5 93z" />
<glyph unicode="&#xdd;" horiz-adv-x="1211" d="M-41 1365h459l239 -449l229 449h366l-427 -787v-578h-407v578zM453 1619l457 224l73 -195l-478 -166z" />
<glyph unicode="&#xde;" horiz-adv-x="1331" d="M119 0v1365h425v-191h158q218 0 332 -50t180 -153t66 -231q0 -196 -136 -316t-363 -120h-237v-304h-425zM538 598h140q185 0 185 136q0 127 -171 127h-154v-263z" />
<glyph unicode="&#xdf;" horiz-adv-x="1319" d="M42 684v250h74q12 276 170 408.5t401 132.5q226 0 336 -95t110 -227q0 -251 -340 -309q32 -15 103 -44q222 -92 305.5 -194.5t83.5 -236.5q0 -170 -131.5 -286.5t-336.5 -116.5q-154 0 -248 34l88 272q60 -40 137 -40q138 0 138 91q0 41 -25 66t-112 71q-147 79 -199 136 t-52 141q0 147 105 273q126 0 126 100q0 44 -33 74t-84 30q-167 0 -167 -224v-1120h-375v814h-74z" />
<glyph unicode="&#xe0;" d="M50 282q0 161 146.5 260.5t519.5 119.5v23q0 67 -30.5 89t-89.5 22q-138 0 -154 -111l-364 34q78 319 531 319q123 0 226 -24.5t163 -76.5t80.5 -110t20.5 -223v-406q0 -116 31 -198h-380q-14 65 -14 142q-108 -163 -327 -163q-180 0 -269.5 92t-89.5 211zM461 313 q0 -92 101 -92q64 0 109 38t45 168v49q-255 -27 -255 -163zM304 1327l73 195l457 -224l-52 -137z" />
<glyph unicode="&#xe1;" d="M50 282q0 161 146.5 260.5t519.5 119.5v23q0 67 -30.5 89t-89.5 22q-138 0 -154 -111l-364 34q78 319 531 319q123 0 226 -24.5t163 -76.5t80.5 -110t20.5 -223v-406q0 -116 31 -198h-380q-14 65 -14 142q-108 -163 -327 -163q-180 0 -269.5 92t-89.5 211zM461 313 q0 -92 101 -92q64 0 109 38t45 168v49q-255 -27 -255 -163zM415 1298l457 224l73 -195l-478 -166z" />
<glyph unicode="&#xe2;" d="M50 282q0 161 146.5 260.5t519.5 119.5v23q0 67 -30.5 89t-89.5 22q-138 0 -154 -111l-364 34q78 319 531 319q123 0 226 -24.5t163 -76.5t80.5 -110t20.5 -223v-406q0 -116 31 -198h-380q-14 65 -14 142q-108 -163 -327 -163q-180 0 -269.5 92t-89.5 211zM461 313 q0 -92 101 -92q64 0 109 38t45 168v49q-255 -27 -255 -163zM222 1195l401 318l402 -318l-232 -21l-170 130l-169 -130z" />
<glyph unicode="&#xe3;" d="M50 282q0 161 146.5 260.5t519.5 119.5v23q0 67 -30.5 89t-89.5 22q-138 0 -154 -111l-364 34q78 319 531 319q123 0 226 -24.5t163 -76.5t80.5 -110t20.5 -223v-406q0 -116 31 -198h-380q-14 65 -14 142q-108 -163 -327 -163q-180 0 -269.5 92t-89.5 211zM461 313 q0 -92 101 -92q64 0 109 38t45 168v49q-255 -27 -255 -163zM257 1305q121 128 233 128q58 0 136 -40q84 -43 118 -43q64 0 148 79l100 -117q-122 -128 -244 -128q-62 0 -157 49q-64 33 -100 33q-70 0 -136 -78z" />
<glyph unicode="&#xe4;" d="M50 282q0 161 146.5 260.5t519.5 119.5v23q0 67 -30.5 89t-89.5 22q-138 0 -154 -111l-364 34q78 319 531 319q123 0 226 -24.5t163 -76.5t80.5 -110t20.5 -223v-406q0 -116 31 -198h-380q-14 65 -14 142q-108 -163 -327 -163q-180 0 -269.5 92t-89.5 211zM461 313 q0 -92 101 -92q64 0 109 38t45 168v49q-255 -27 -255 -163zM307 1320q0 53 38.5 92t94.5 39t94 -39.5t38 -92.5q0 -54 -39 -92.5t-93 -38.5q-55 0 -94 38.5t-39 93.5zM667 1320q0 54 39 92.5t94 38.5t93.5 -38.5t38.5 -92.5q0 -55 -39 -93.5t-92 -38.5q-55 0 -94.5 39 t-39.5 93z" />
<glyph unicode="&#xe5;" d="M50 282q0 161 146.5 260.5t519.5 119.5v23q0 67 -30.5 89t-89.5 22q-138 0 -154 -111l-364 34q78 319 531 319q123 0 226 -24.5t163 -76.5t80.5 -110t20.5 -223v-406q0 -116 31 -198h-380q-14 65 -14 142q-108 -163 -327 -163q-180 0 -269.5 92t-89.5 211zM461 313 q0 -92 101 -92q64 0 109 38t45 168v49q-255 -27 -255 -163zM420 1347q0 83 59 142t142 59q84 0 143 -58.5t59 -141.5q0 -84 -59.5 -142.5t-142.5 -58.5t-142 58.5t-59 141.5zM546 1348q0 -31 22 -53t53 -22t53.5 22t22.5 55q0 29 -22.5 51t-53.5 22t-53 -22.5t-22 -52.5z " />
<glyph unicode="&#xe6;" horiz-adv-x="1627" d="M51 281q0 158 124.5 257t473.5 128v32q0 98 -104 98q-112 0 -133 -112l-338 35q80 319 489 319q167 0 271 -70q118 70 255 70q226 0 357 -150t131 -377q0 -23 -4 -75h-606q4 -192 144 -192q118 0 134 125l328 -25q-30 -164 -159 -264.5t-308 -100.5q-236 0 -383 173 q-127 -173 -351 -173q-157 0 -239 90t-82 212zM429 316q0 -44 25.5 -69.5t62.5 -25.5q136 0 136 201q0 18 -4 57q-220 -33 -220 -163zM966 633h258q0 175 -128 175t-130 -175z" />
<glyph unicode="&#xe7;" horiz-adv-x="1071" d="M51 501q0 234 144.5 385.5t375.5 151.5q205 0 334 -114.5t148 -289.5l-349 -29q-22 161 -122 161q-64 0 -93.5 -58.5t-29.5 -203.5q0 -125 29.5 -185t102.5 -60q107 0 127 151l340 -29q-61 -375 -452 -401l-29 -80q21 1 35 1q67 0 108.5 -43.5t41.5 -108.5 q0 -81 -60.5 -125t-156.5 -44q-117 0 -228 66l39 82q83 -45 155 -45q81 0 81 65q0 79 -129 79q-10 0 -28 -1l60 157q-199 22 -321.5 169t-122.5 349z" />
<glyph unicode="&#xe8;" d="M51 496q0 228 151 385t403 157q244 0 394.5 -148t150.5 -403q0 -21 -1 -58h-681q2 -96 34 -142.5t122 -46.5q130 0 153 125l372 -25q-33 -150 -168.5 -255.5t-366.5 -105.5q-257 0 -410 148.5t-153 368.5zM467 629h284q-1 103 -41.5 138.5t-100.5 35.5q-142 0 -142 -174z M302 1327l73 195l457 -224l-52 -137z" />
<glyph unicode="&#xe9;" d="M51 496q0 228 151 385t403 157q244 0 394.5 -148t150.5 -403q0 -21 -1 -58h-681q2 -96 34 -142.5t122 -46.5q130 0 153 125l372 -25q-33 -150 -168.5 -255.5t-366.5 -105.5q-257 0 -410 148.5t-153 368.5zM467 629h284q-1 103 -41.5 138.5t-100.5 35.5q-142 0 -142 -174z M408 1298l457 224l73 -195l-478 -166z" />
<glyph unicode="&#xea;" d="M51 496q0 228 151 385t403 157q244 0 394.5 -148t150.5 -403q0 -21 -1 -58h-681q2 -96 34 -142.5t122 -46.5q130 0 153 125l372 -25q-33 -150 -168.5 -255.5t-366.5 -105.5q-257 0 -410 148.5t-153 368.5zM467 629h284q-1 103 -41.5 138.5t-100.5 35.5q-142 0 -142 -174z M218 1195l401 318l402 -318l-232 -21l-170 130l-169 -130z" />
<glyph unicode="&#xeb;" d="M51 496q0 228 151 385t403 157q244 0 394.5 -148t150.5 -403q0 -21 -1 -58h-681q2 -96 34 -142.5t122 -46.5q130 0 153 125l372 -25q-33 -150 -168.5 -255.5t-366.5 -105.5q-257 0 -410 148.5t-153 368.5zM467 629h284q-1 103 -41.5 138.5t-100.5 35.5q-142 0 -142 -174z M302 1320q0 53 38.5 92t94.5 39t94 -39.5t38 -92.5q0 -54 -39 -92.5t-93 -38.5q-55 0 -94 38.5t-39 93.5zM662 1320q0 54 39 92.5t94 38.5t93.5 -38.5t38.5 -92.5q0 -55 -39 -93.5t-92 -38.5q-55 0 -94.5 39t-39.5 93z" />
<glyph unicode="&#xec;" horiz-adv-x="609" d="M105 0v1017h399v-1017h-399zM-13 1327l73 195l457 -224l-52 -137z" />
<glyph unicode="&#xed;" horiz-adv-x="609" d="M105 0v1017h399v-1017h-399zM96 1298l457 224l73 -195l-478 -166z" />
<glyph unicode="&#xee;" horiz-adv-x="609" d="M105 0v1017h399v-1017h-399zM-97 1195l401 318l402 -318l-232 -21l-170 130l-169 -130z" />
<glyph unicode="&#xef;" horiz-adv-x="609" d="M105 0v1017h399v-1017h-399zM8 1320q0 53 38.5 92t94.5 39t94 -39.5t38 -92.5q0 -54 -39 -92.5t-93 -38.5q-55 0 -94 38.5t-39 93.5zM368 1320q0 54 39 92.5t94 38.5t93.5 -38.5t38.5 -92.5q0 -55 -39 -93.5t-92 -38.5q-55 0 -94.5 39t-39.5 93z" />
<glyph unicode="&#xf0;" horiz-adv-x="1216" d="M55 507q0 206 142.5 355t339.5 149q127 0 208 -62q-36 124 -119 216l-201 -89l-59 120l151 67q-46 37 -178 72l70 120q157 -32 307 -96l214 96l66 -126l-143 -63q132 -95 222 -288t90 -405q0 -297 -153.5 -445.5t-386.5 -148.5q-274 0 -422 161t-148 367zM475 495 q0 -138 29 -206t103 -68q78 0 106 74t28 201q0 271 -135 271q-71 0 -101 -65t-30 -207z" />
<glyph unicode="&#xf1;" horiz-adv-x="1203" d="M105 0v1017h370v-144q82 165 293 165q111 0 187.5 -42.5t109.5 -110t33 -234.5v-651h-399v640q0 79 -24.5 101t-61.5 22q-109 0 -109 -152v-611h-399zM234 1309q121 128 233 128q58 0 136 -40q84 -43 118 -43q64 0 148 79l100 -117q-122 -128 -244 -128q-62 0 -157 49 q-64 33 -100 33q-70 0 -136 -78z" />
<glyph unicode="&#xf2;" horiz-adv-x="1217" d="M51 506q0 228 155.5 380t404.5 152q251 0 403.5 -150t152.5 -376q0 -228 -154.5 -380.5t-410.5 -152.5q-253 0 -402 157.5t-149 369.5zM476 509q0 -175 33 -231.5t99 -56.5q93 0 113.5 96.5t20.5 201.5q0 143 -29 206t-104 63q-69 0 -101 -65t-32 -214zM297 1327l73 195 l457 -224l-52 -137z" />
<glyph unicode="&#xf3;" horiz-adv-x="1217" d="M51 506q0 228 155.5 380t404.5 152q251 0 403.5 -150t152.5 -376q0 -228 -154.5 -380.5t-410.5 -152.5q-253 0 -402 157.5t-149 369.5zM476 509q0 -175 33 -231.5t99 -56.5q93 0 113.5 96.5t20.5 201.5q0 143 -29 206t-104 63q-69 0 -101 -65t-32 -214zM412 1298l457 224 l73 -195l-478 -166z" />
<glyph unicode="&#xf4;" horiz-adv-x="1217" d="M51 506q0 228 155.5 380t404.5 152q251 0 403.5 -150t152.5 -376q0 -228 -154.5 -380.5t-410.5 -152.5q-253 0 -402 157.5t-149 369.5zM476 509q0 -175 33 -231.5t99 -56.5q93 0 113.5 96.5t20.5 201.5q0 143 -29 206t-104 63q-69 0 -101 -65t-32 -214zM207 1195l401 318 l402 -318l-232 -21l-170 130l-169 -130z" />
<glyph unicode="&#xf5;" horiz-adv-x="1217" d="M51 506q0 228 155.5 380t404.5 152q251 0 403.5 -150t152.5 -376q0 -228 -154.5 -380.5t-410.5 -152.5q-253 0 -402 157.5t-149 369.5zM476 509q0 -175 33 -231.5t99 -56.5q93 0 113.5 96.5t20.5 201.5q0 143 -29 206t-104 63q-69 0 -101 -65t-32 -214zM255 1309 q121 128 233 128q58 0 136 -40q84 -43 118 -43q64 0 148 79l100 -117q-122 -128 -244 -128q-62 0 -157 49q-64 33 -100 33q-70 0 -136 -78z" />
<glyph unicode="&#xf6;" horiz-adv-x="1217" d="M51 506q0 228 155.5 380t404.5 152q251 0 403.5 -150t152.5 -376q0 -228 -154.5 -380.5t-410.5 -152.5q-253 0 -402 157.5t-149 369.5zM476 509q0 -175 33 -231.5t99 -56.5q93 0 113.5 96.5t20.5 201.5q0 143 -29 206t-104 63q-69 0 -101 -65t-32 -214zM296 1320 q0 53 38.5 92t94.5 39t94 -39.5t38 -92.5q0 -54 -39 -92.5t-93 -38.5q-55 0 -94 38.5t-39 93.5zM656 1320q0 54 39 92.5t94 38.5t93.5 -38.5t38.5 -92.5q0 -55 -39 -93.5t-92 -38.5q-55 0 -94.5 39t-39.5 93z" />
<glyph unicode="&#xf7;" d="M103 563v253h995v-253h-995zM432 323q0 66 48 112.5t115 46.5t112 -48.5t45 -113.5t-46 -110.5t-111 -45.5q-66 0 -114.5 45.5t-48.5 113.5zM432 1056q0 66 48 112.5t114 46.5q71 0 114.5 -49.5t43.5 -112.5q0 -65 -46 -110.5t-111 -45.5t-114 45.5t-49 113.5z" />
<glyph unicode="&#xf8;" horiz-adv-x="1217" d="M51 507q0 227 155.5 379t406.5 152q111 0 221 -38l89 128h186l-139 -201q196 -153 196 -416q0 -231 -156.5 -381.5t-416.5 -150.5q-111 0 -214 40l-86 -128h-185l132 209q-189 158 -189 407zM467 500q0 -35 5 -97l222 359q-31 26 -84 26q-72 0 -107.5 -58.5t-35.5 -229.5 zM520 252q29 -31 88 -31q73 0 107.5 58t34.5 244q0 47 -5 98z" />
<glyph unicode="&#xf9;" horiz-adv-x="1199" d="M105 290v727h399v-640q0 -60 16.5 -84.5t64.5 -24.5q51 0 83 36.5t32 102.5v610h394v-1017h-369v167q-81 -188 -316 -188q-145 0 -224.5 80.5t-79.5 230.5zM282 1327l73 195l457 -224l-52 -137z" />
<glyph unicode="&#xfa;" horiz-adv-x="1199" d="M105 290v727h399v-640q0 -60 16.5 -84.5t64.5 -24.5q51 0 83 36.5t32 102.5v610h394v-1017h-369v167q-81 -188 -316 -188q-145 0 -224.5 80.5t-79.5 230.5zM396 1298l457 224l73 -195l-478 -166z" />
<glyph unicode="&#xfb;" horiz-adv-x="1199" d="M105 290v727h399v-640q0 -60 16.5 -84.5t64.5 -24.5q51 0 83 36.5t32 102.5v610h394v-1017h-369v167q-81 -188 -316 -188q-145 0 -224.5 80.5t-79.5 230.5zM198 1195l401 318l402 -318l-232 -21l-170 130l-169 -130z" />
<glyph unicode="&#xfc;" horiz-adv-x="1199" d="M105 290v727h399v-640q0 -60 16.5 -84.5t64.5 -24.5q51 0 83 36.5t32 102.5v610h394v-1017h-369v167q-81 -188 -316 -188q-145 0 -224.5 80.5t-79.5 230.5zM287 1320q0 53 38.5 92t94.5 39t94 -39.5t38 -92.5q0 -54 -39 -92.5t-93 -38.5q-55 0 -94 38.5t-39 93.5z M647 1320q0 54 39 92.5t94 38.5t93.5 -38.5t38.5 -92.5q0 -55 -39 -93.5t-92 -38.5q-55 0 -94.5 39t-39.5 93z" />
<glyph unicode="&#xfd;" horiz-adv-x="1049" d="M-7 1017h427l168 -542l176 542h291l-399 -1102q-46 -125 -132 -195.5t-265 -70.5q-43 0 -200 9v283q78 -12 144 -12q172 0 172 76q0 25 -17 69zM347 1298l457 224l73 -195l-478 -166z" />
<glyph unicode="&#xfe;" d="M105 -321v1686h396v-469q69 142 259 142q177 0 282 -138t105 -389q0 -244 -105.5 -388t-278.5 -144q-170 0 -259 130v-430h-399zM504 372q0 -68 31 -105.5t77 -37.5q72 0 99 66.5t27 204.5q0 159 -31 223.5t-93 64.5q-37 0 -73.5 -29t-36.5 -95v-292z" />
<glyph unicode="&#xff;" horiz-adv-x="1049" d="M-7 1017h427l168 -542l176 542h291l-399 -1102q-46 -125 -132 -195.5t-265 -70.5q-43 0 -200 9v283q78 -12 144 -12q172 0 172 76q0 25 -17 69zM229 1320q0 53 38.5 92t94.5 39t94 -39.5t38 -92.5q0 -54 -39 -92.5t-93 -38.5q-55 0 -94 38.5t-39 93.5zM589 1320 q0 54 39 92.5t94 38.5t93.5 -38.5t38.5 -92.5q0 -55 -39 -93.5t-92 -38.5q-55 0 -94.5 39t-39.5 93z" />
<glyph unicode="&#x131;" horiz-adv-x="609" d="M105 0v1017h399v-1017h-399z" />
<glyph unicode="&#x152;" horiz-adv-x="1945" d="M58 681q0 294 167.5 499.5t484.5 205.5q97 0 191 -21h996v-315h-618v-198h497v-303h-497v-223h618v-326h-996q-104 -21 -193 -21q-291 0 -470.5 192t-179.5 510zM503 681q0 -188 42.5 -290t164.5 -102q99 0 145.5 81.5t46.5 313.5q0 241 -49.5 320.5t-140.5 79.5 q-209 0 -209 -403z" />
<glyph unicode="&#x153;" horiz-adv-x="1733" d="M51 498q0 225 143 382.5t377 157.5q168 0 313 -92q133 92 299 92q219 0 359 -145t140 -406q0 -18 -2 -58h-624q5 -200 141 -200q51 0 93.5 33.5t50.5 100.5l339 -24q-34 -164 -167.5 -262t-314.5 -98q-183 0 -314 94q-148 -94 -315 -94q-162 0 -277.5 71.5t-178 193.5 t-62.5 254zM450 498q0 -171 31.5 -224t94.5 -53t92.5 52.5t29.5 242.5q0 162 -27.5 217t-93.5 55q-72 0 -99.5 -70.5t-27.5 -219.5zM1054 628h266q1 16 1 26q0 60 -33.5 104t-94.5 44q-130 0 -139 -174z" />
<glyph unicode="&#x178;" horiz-adv-x="1211" d="M-41 1365h459l239 -449l229 449h366l-427 -787v-578h-407v578zM319 1643q0 53 38.5 92t94.5 39t94 -39.5t38 -92.5q0 -54 -39 -92.5t-93 -38.5q-55 0 -94 38.5t-39 93.5zM679 1643q0 54 39 92.5t94 38.5t93.5 -38.5t38.5 -92.5q0 -55 -39 -93.5t-92 -38.5q-55 0 -94.5 39 t-39.5 93z" />
<glyph unicode="&#x192;" d="M-14 -282l45 254q51 -9 92 -9q84 0 118 33.5t50 124.5l129 732h-153l47 264h153q30 233 141.5 324t316.5 91q121 0 226 -24l-45 -253q-60 8 -94 8q-82 0 -124.5 -26t-55.5 -120h211l-46 -264h-196l-137 -777q-36 -202 -145.5 -292t-333.5 -90q-100 0 -199 24z" />
<glyph unicode="&#x2c6;" horiz-adv-x="1024" d="M111 1195l401 318l402 -318l-232 -21l-170 130l-169 -130z" />
<glyph unicode="&#x2c7;" horiz-adv-x="1024" d="M111 1479l232 20l169 -130l170 130l232 -20l-402 -318z" />
<glyph unicode="&#x2d8;" horiz-adv-x="1024" d="M148 1495h176q69 -142 190 -142q122 0 186 142h176q-35 -153 -137 -233.5t-226 -80.5q-122 0 -224 77t-141 237z" />
<glyph unicode="&#x2d9;" horiz-adv-x="1024" d="M376 1324q0 56 40 95.5t96 39.5q57 0 97 -39.5t40 -95.5q0 -57 -40 -96.5t-96 -39.5t-96.5 40t-40.5 96z" />
<glyph unicode="&#x2da;" horiz-adv-x="1024" d="M311 1347q0 83 59 142t142 59q84 0 143 -58.5t59 -141.5q0 -84 -59.5 -142.5t-142.5 -58.5t-142 58.5t-59 141.5zM437 1348q0 -31 22 -53t53 -22t53.5 22t22.5 55q0 29 -22.5 51t-53.5 22t-53 -22.5t-22 -52.5z" />
<glyph unicode="&#x2db;" horiz-adv-x="1024" d="M569 -204q0 122 164 204h151q-134 -75 -134 -164q0 -90 107 -90q41 0 92 18l20 -85q-83 -40 -183 -40q-121 0 -169 48.5t-48 108.5z" />
<glyph unicode="&#x2dc;" horiz-adv-x="1024" d="M145 1309q121 128 233 128q58 0 136 -40q84 -43 118 -43q64 0 148 79l100 -117q-122 -128 -244 -128q-62 0 -157 49q-64 33 -100 33q-70 0 -136 -78z" />
<glyph unicode="&#x2dd;" horiz-adv-x="1024" d="M206 1277l323 259l98 -164l-354 -211zM614 1277l324 259l97 -164l-353 -211z" />
<glyph unicode="&#x3a9;" horiz-adv-x="1473" d="M55 0v317h339q-168 56 -247.5 193.5t-79.5 304.5q0 250 172.5 410.5t497.5 160.5q318 0 494 -158.5t176 -412.5q0 -166 -79.5 -304t-247.5 -194h339v-317h-615v317q153 87 153 420q0 360 -220 360t-220 -360q0 -333 153 -420v-317h-615z" />
<glyph unicode="&#x3c0;" horiz-adv-x="1290" d="M27 755v255h1235v-255h-113v-755h-398v755h-212v-755h-399v755h-113z" />
<glyph unicode="&#x410;" horiz-adv-x="1306" d="M7 0l422 1365h443l427 -1365h-427l-77 269h-366l-82 -269h-340zM500 567h222l-111 396z" />
<glyph unicode="&#x411;" horiz-adv-x="1337" d="M119 0v1365h1007v-286h-600v-247h227q190 0 296.5 -42t169.5 -136.5t63 -229.5q0 -112 -51 -218t-174 -156t-249 -50h-689zM526 304h204q126 0 126 126q0 122 -154 122h-176v-248z" />
<glyph unicode="&#x412;" horiz-adv-x="1316" d="M119 0v1365h693q216 0 315 -109t99 -249q0 -102 -57.5 -184.5t-171.5 -113.5q265 -64 265 -318q0 -152 -93.5 -271.5t-399.5 -119.5h-650zM505 304h204q76 0 111.5 37.5t35.5 84.5t-34.5 86.5t-126.5 39.5h-190v-248zM505 842h194q73 0 103 37t30 79q0 114 -140 114h-187 v-230z" />
<glyph unicode="&#x413;" horiz-adv-x="974" d="M119 0v1365h869v-322h-450v-1043h-419z" />
<glyph unicode="&#x414;" horiz-adv-x="1329" d="M-43 -287v591h150l308 1061h500l302 -1061h150v-591h-263l-34 287h-815l-35 -287h-263zM434 304h378l-167 747h-20z" />
<glyph unicode="&#x415;" horiz-adv-x="1193" d="M119 0v1365h1027v-315h-616v-198h498v-303h-498v-223h616v-326h-1027z" />
<glyph unicode="&#x416;" horiz-adv-x="1925" d="M-34 0l467 667l-425 698h418l309 -555l54 -11v566h367v-566l55 11l309 555h376l-372 -594l497 -771h-433l-372 568l-60 -15v-553h-367v553l-62 15l-370 -568h-391z" />
<glyph unicode="&#x417;" horiz-adv-x="1258" d="M27 429l380 40q17 -101 60 -145.5t129 -44.5q175 0 175 158q0 139 -141 139h-95v240h84q125 0 125 139q0 132 -167 132q-75 0 -120 -31.5t-63 -139.5l-334 54q44 416 536 416q241 0 403 -93t162 -281q0 -196 -213 -282q255 -90 255 -313q0 -187 -160 -312.5t-440 -125.5 q-263 0 -419.5 114.5t-156.5 335.5z" />
<glyph unicode="&#x418;" horiz-adv-x="1405" d="M119 0v1365h407v-548q0 -109 -12 -260q75 164 149 291l216 371v146h407v-1365h-407v543q0 117 11 259q-60 -138 -149 -290l-215 -368v-144h-407z" />
<glyph unicode="&#x419;" horiz-adv-x="1405" d="M119 0v1365h407v-548q0 -109 -12 -260q75 164 149 291l216 371v146h407v-1365h-407v543q0 117 11 259q-60 -138 -149 -290l-215 -368v-144h-407zM338 1816h176q69 -142 190 -142q122 0 186 142h176q-35 -153 -137 -233.5t-226 -80.5q-122 0 -224 77t-141 237z" />
<glyph unicode="&#x41a;" horiz-adv-x="1343" d="M119 0v1365h395v-564l377 564h376l-345 -499l428 -866h-459l-236 516l-141 -201v-315h-395z" />
<glyph unicode="&#x41b;" horiz-adv-x="1212" d="M-48 0l432 1365h445l424 -1365h-414l-273 970l-279 -970h-335z" />
<glyph unicode="&#x41c;" horiz-adv-x="1722" d="M119 0v1365h547l198 -725l189 725h550v-1365h-389v976l-253 -976h-266l-262 976v-976h-314z" />
<glyph unicode="&#x41d;" horiz-adv-x="1395" d="M119 0v1365h419v-502h320v502h419v-1365h-419v531h-320v-531h-419z" />
<glyph unicode="&#x41e;" horiz-adv-x="1415" d="M58 681q0 306 173.5 505.5t481.5 199.5q285 0 464.5 -188t179.5 -502q0 -325 -181 -521t-467 -196q-288 0 -469.5 191t-181.5 511zM509 670q0 -381 198 -381q106 0 152.5 92.5t46.5 338.5q0 356 -191 356q-206 0 -206 -406z" />
<glyph unicode="&#x41f;" horiz-adv-x="1366" d="M119 0v1365h1129v-1365h-407v1072h-315v-1072h-407z" />
<glyph unicode="&#x420;" horiz-adv-x="1317" d="M119 0v1365h583q218 0 331.5 -50t180 -153t66.5 -231q0 -195 -136 -315t-363 -120h-237v-496h-425zM538 789h140q185 0 185 136q0 128 -171 128h-154v-264z" />
<glyph unicode="&#x421;" horiz-adv-x="1287" d="M58 671q0 321 162 518t452 197q271 0 416.5 -150t164.5 -398l-391 -21q0 137 -52.5 198t-123.5 61q-198 0 -198 -398q0 -223 51.5 -303t144.5 -80q166 0 186 226l383 -23q-27 -251 -185.5 -385t-389.5 -134q-278 0 -449 184t-171 508z" />
<glyph unicode="&#x422;" horiz-adv-x="963" d="M0 1038v327h963v-327h-283v-1038h-397v1038h-283z" />
<glyph unicode="&#x423;" horiz-adv-x="1149" d="M-62 1365h465l240 -528l197 528h370l-402 -995q-54 -135 -123.5 -215.5t-152.5 -117.5t-210 -37h-211v304h140q175 0 206 118z" />
<glyph unicode="&#x424;" horiz-adv-x="1570" d="M58 683q0 226 144.5 380t411.5 175v168h342v-168q270 -21 413 -176t143 -379q0 -227 -145.5 -381t-410.5 -175v-168h-342v168q-268 21 -412 175.5t-144 380.5zM447 683q0 -215 167 -283v566q-167 -68 -167 -283zM956 400q167 68 167 283t-167 283v-566z" />
<glyph unicode="&#x425;" horiz-adv-x="1322" d="M-27 0l440 707l-422 658h488l212 -367l220 367h376l-396 -634l459 -731h-487l-252 429l-254 -429h-384z" />
<glyph unicode="&#x426;" horiz-adv-x="1361" d="M120 0v1365h407v-1043h294v1043h407v-1043h160v-609h-264l-34 287h-970z" />
<glyph unicode="&#x427;" horiz-adv-x="1365" d="M96 835v530h419v-538q0 -73 23.5 -104t100.5 -31q93 0 188 41v632h419v-1365h-419v481q-119 -94 -290 -94q-192 0 -316.5 105t-124.5 343z" />
<glyph unicode="&#x428;" horiz-adv-x="2040" d="M119 0v1365h407v-1043h291v1043h407v-1043h290v1043h407v-1365h-1802z" />
<glyph unicode="&#x429;" horiz-adv-x="2053" d="M119 0v1365h407v-1043h291v1043h407v-1043h290v1043h407v-1043h160v-609h-263l-35 287h-1664z" />
<glyph unicode="&#x42a;" horiz-adv-x="1431" d="M-55 1043v322h695v-482h241q199 0 299 -45.5t158.5 -144.5t58.5 -237q0 -190 -124 -323t-392 -133h-648v1043h-288zM640 304h190q79 0 109.5 33.5t30.5 115.5q0 140 -126 140h-204v-289z" />
<glyph unicode="&#x42b;" horiz-adv-x="1933" d="M119 0v1365h407v-482h241q199 0 299 -45.5t158 -144.5t58 -237q0 -190 -123.5 -323t-391.5 -133h-648zM526 304h190q79 0 109.5 33.5t30.5 115.5q0 140 -126 140h-204v-289zM1408 0v1365h407v-1365h-407z" />
<glyph unicode="&#x42c;" horiz-adv-x="1316" d="M119 0v1365h407v-482h241q199 0 299 -45.5t158 -144.5t58 -237q0 -190 -123.5 -323t-391.5 -133h-648zM526 304h190q79 0 109.5 33.5t30.5 115.5q0 140 -126 140h-204v-289z" />
<glyph unicode="&#x42d;" horiz-adv-x="1362" d="M14 425l386 65q59 -201 248 -201q121 0 181 79.5t62 199.5h-448v255h434q-17 253 -222 253q-160 0 -225 -169l-371 103q178 376 602 376q210 0 357 -95t216.5 -254.5t69.5 -344.5q0 -337 -180.5 -525t-475.5 -188q-244 0 -405.5 122.5t-228.5 323.5z" />
<glyph unicode="&#x42e;" horiz-adv-x="2062" d="M119 0v1365h407v-523h194q45 252 217.5 398t408.5 146q302 0 480 -196t178 -504q0 -309 -174 -508t-481 -199q-270 0 -439 162.5t-197 408.5h-187v-550h-407zM1139 644q0 -355 199 -355q215 0 215 406q0 381 -206 381q-110 0 -159 -92t-49 -340z" />
<glyph unicode="&#x42f;" horiz-adv-x="1399" d="M52 0l301 574q-282 108 -282 374q0 205 133 311t363 106h713v-1365h-419v522h-200l-213 -522h-396zM507 945q0 -70 49 -100.5t154 -30.5h151v261h-165q-122 0 -155.5 -40.5t-33.5 -89.5z" />
<glyph unicode="&#x430;" d="M50 282q0 161 146.5 260.5t519.5 119.5v23q0 67 -30.5 89t-89.5 22q-138 0 -154 -111l-364 34q78 319 531 319q123 0 226 -24.5t163 -76.5t80.5 -110t20.5 -223v-406q0 -116 31 -198h-380q-14 65 -14 142q-108 -163 -327 -163q-180 0 -269.5 92t-89.5 211zM461 313 q0 -92 101 -92q64 0 109 38t45 168v49q-255 -27 -255 -163z" />
<glyph unicode="&#x431;" horiz-adv-x="1197" d="M55 586q0 188 36.5 327t107 231.5t147.5 134.5t215 81q74 20 92 35.5t19 59.5h387q-5 -95 -83.5 -162t-295.5 -112q-137 -28 -188.5 -72t-64.5 -140q100 43 215 43q245 0 373 -146t128 -349q0 -236 -149.5 -387t-397.5 -151q-185 0 -313.5 82t-178 211t-49.5 314z M462 505q0 -169 32.5 -222.5t102.5 -53.5q69 0 100 57t31 220q0 159 -29 221t-106 62q-69 0 -100 -58t-31 -226z" />
<glyph unicode="&#x432;" horiz-adv-x="1160" d="M105 0v1010h641q172 0 255 -70t83 -183q0 -187 -251 -232q279 -51 279 -259q0 -132 -99.5 -199t-277.5 -67h-630zM490 229h130q67 0 88 27.5t21 81.5q0 64 -26 86t-83 22h-130v-217zM490 603h140q85 0 85 89q0 97 -85 97h-140v-186z" />
<glyph unicode="&#x433;" horiz-adv-x="855" d="M105 0v1010h723v-254h-324v-756h-399z" />
<glyph unicode="&#x434;" horiz-adv-x="1077" d="M-16 -232v472h96l214 770h519l185 -770h95v-472h-236l-34 232h-569l-34 -232h-236zM354 240h254l-90 531h-39z" />
<glyph unicode="&#x435;" d="M51 496q0 228 151 385t403 157q244 0 394.5 -148t150.5 -403q0 -21 -1 -58h-681q2 -96 34 -142.5t122 -46.5q130 0 153 125l372 -25q-33 -150 -168.5 -255.5t-366.5 -105.5q-257 0 -410 148.5t-153 368.5zM467 629h284q-1 103 -41.5 138.5t-100.5 35.5q-142 0 -142 -174z " />
<glyph unicode="&#x436;" horiz-adv-x="1657" d="M-28 0l337 526l-329 484h379l231 -350l41 -3v353h396v-353l41 3l230 350h394l-334 -392l355 -618h-398l-217 418l-71 -20v-398h-396v398l-71 20l-217 -418h-371z" />
<glyph unicode="&#x437;" horiz-adv-x="1083" d="M21 273l362 49q21 -117 120 -117q98 0 98 99q0 68 -41 90t-162 22v191h46q143 0 143 92q0 98 -94 98q-93 0 -110 -101l-352 51q73 284 510 284q224 0 334 -80t110 -207q0 -143 -186 -204q227 -53 227 -235q0 -153 -126 -239.5t-372 -86.5q-261 0 -371 91t-136 203z" />
<glyph unicode="&#x438;" horiz-adv-x="1223" d="M105 0v1010h399v-323q0 -90 -11 -246q63 139 107 222l119 225v122h399v-1010h-399v296q0 111 11 246q-63 -140 -107 -222l-119 -224v-96h-399z" />
<glyph unicode="&#x439;" horiz-adv-x="1223" d="M105 0v1010h399v-323q0 -90 -11 -246q63 139 107 222l119 225v122h399v-1010h-399v296q0 111 11 246q-63 -140 -107 -222l-119 -224v-96h-399zM248 1495h176q69 -142 190 -142q122 0 186 142h176q-35 -153 -137 -233.5t-226 -80.5q-122 0 -224 77t-141 237z" />
<glyph unicode="&#x43a;" horiz-adv-x="1162" d="M105 0v1010h397v-380q34 51 71 93l255 287h353l-307 -343l342 -667h-412l-191 407l-111 -127v-280h-397z" />
<glyph unicode="&#x43b;" horiz-adv-x="991" d="M-45 0l335 1010h423l315 -1010h-410l-163 684h-14l-204 -684h-282z" />
<glyph unicode="&#x43c;" horiz-adv-x="1619" d="M105 0v1010h559l162 -777l162 777h525v-1010h-361v774h-14l-165 -774h-389l-165 774h-14v-774h-300z" />
<glyph unicode="&#x43d;" horiz-adv-x="1196" d="M105 0v1010h399v-361h188v361h399v-1010h-399v412h-188v-412h-399z" />
<glyph unicode="&#x43e;" horiz-adv-x="1217" d="M51 506q0 228 155.5 380t404.5 152q251 0 403.5 -150t152.5 -376q0 -228 -154.5 -380.5t-410.5 -152.5q-253 0 -402 157.5t-149 369.5zM476 509q0 -175 33 -231.5t99 -56.5q93 0 113.5 96.5t20.5 201.5q0 143 -29 206t-104 63q-69 0 -101 -65t-32 -214z" />
<glyph unicode="&#x43f;" horiz-adv-x="1166" d="M105 0v1010h956v-1010h-399v791h-158v-791h-399z" />
<glyph unicode="&#x440;" d="M105 -321v1338h367v-144q77 165 287 165q182 0 285 -141.5t103 -385.5t-105.5 -388t-278.5 -144q-170 0 -259 130v-430h-399zM504 372q0 -68 31 -105.5t77 -37.5q72 0 99 66.5t27 204.5q0 159 -31 223.5t-93 64.5q-37 0 -73.5 -29t-36.5 -95v-292z" />
<glyph unicode="&#x441;" horiz-adv-x="1071" d="M51 501q0 234 144.5 385.5t375.5 151.5q205 0 334 -114.5t148 -289.5l-349 -29q-22 161 -122 161q-64 0 -93.5 -58.5t-29.5 -203.5q0 -125 29.5 -185t102.5 -60q107 0 127 151l340 -29q-24 -178 -149.5 -290t-333.5 -112q-233 0 -378.5 146.5t-145.5 375.5z" />
<glyph unicode="&#x442;" horiz-adv-x="872" d="M-34 756v254h940v-254h-264v-756h-399v756h-277z" />
<glyph unicode="&#x443;" horiz-adv-x="1049" d="M-7 1017h427l168 -542l176 542h291l-399 -1102q-46 -125 -132 -195.5t-265 -70.5q-43 0 -200 9v283q78 -12 144 -12q172 0 172 76q0 25 -17 69z" />
<glyph unicode="&#x444;" horiz-adv-x="1527" d="M58 497q0 227 140 366.5t380 164.5v337h372v-337q240 -25 380 -165t140 -367q0 -226 -135 -363t-385 -154v-320h-372v320q-197 15 -311 93.5t-161.5 185.5t-47.5 239zM420 510q0 -237 176 -324v649q-176 -88 -176 -325zM932 186q175 87 175 324q0 107 -46 197t-129 128 v-649z" />
<glyph unicode="&#x445;" horiz-adv-x="1133" d="M-14 0l357 539l-313 478h444l105 -190q7 -13 17 -30q5 -8 14 -26q11 17 27 46q2 5 11 21l104 179h329l-298 -462l363 -555h-450l-187 324l-199 -324h-324z" />
<glyph unicode="&#x446;" horiz-adv-x="1207" d="M105 0v1010h399v-756h186v756h398v-756h146v-486h-236l-34 232h-859z" />
<glyph unicode="&#x447;" horiz-adv-x="1166" d="M82 596v414h399v-387q0 -60 14.5 -81t63.5 -21q55 0 104 23v466h398v-1010h-398v349q-121 -71 -271 -71q-310 0 -310 318z" />
<glyph unicode="&#x448;" horiz-adv-x="1778" d="M105 0v1010h399v-756h185v756h399v-756h186v756h398v-1010h-1567z" />
<glyph unicode="&#x449;" horiz-adv-x="1791" d="M105 0v1010h399v-756h185v756h399v-756h186v756h398v-756h146v-486h-236l-34 232h-1443z" />
<glyph unicode="&#x44a;" horiz-adv-x="1226" d="M-55 756v254h658v-344h185q194 0 291.5 -89t97.5 -245q0 -98 -44 -182.5t-149.5 -117t-195.5 -32.5h-584v756h-259zM589 229h131q67 0 87.5 27.5t20.5 81.5q0 52 -19 80t-89 28h-131v-217z" />
<glyph unicode="&#x44b;" horiz-adv-x="1692" d="M105 0v1010h399v-344h185q193 0 291 -89t98 -245q0 -98 -44.5 -182.5t-149.5 -117t-195 -32.5h-584zM490 229h130q67 0 88 27.5t21 81.5q0 64 -26 86t-83 22h-130v-217zM1188 0v1010h399v-1010h-399z" />
<glyph unicode="&#x44c;" horiz-adv-x="1126" d="M105 0v1010h399v-344h185q193 0 291 -89t98 -245q0 -98 -44.5 -182.5t-149.5 -117t-195 -32.5h-584zM490 229h130q67 0 88 27.5t21 81.5q0 64 -26 86t-83 22h-130v-217z" />
<glyph unicode="&#x44d;" horiz-adv-x="1137" d="M21 272l369 50q23 -102 126 -102q140 0 140 160v22h-388v219h388q-1 80 -30 124t-106 44q-98 0 -115 -93l-373 52q113 283 484 283q276 0 423 -154t147 -374q0 -219 -144.5 -371.5t-442.5 -152.5q-357 0 -478 293z" />
<glyph unicode="&#x44e;" horiz-adv-x="1780" d="M105 0v1010h399v-378h122q42 185 188 292t357 107q250 0 403.5 -146.5t153.5 -379.5q0 -232 -153.5 -379t-403.5 -147q-217 0 -364 112t-184 302h-119v-393h-399zM1028 505q0 -156 31.5 -216t112.5 -60q70 0 101 57.5t31 219.5q0 157 -29 220t-108 63q-72 0 -105.5 -58.5 t-33.5 -225.5z" />
<glyph unicode="&#x44f;" horiz-adv-x="1137" d="M14 0l205 453q-160 62 -160 243q0 136 92 225t259 89h622v-1010h-399v379h-161l-148 -379h-310zM422 692q0 -89 85 -89h140v186h-140q-85 0 -85 -97z" />
<glyph unicode="&#x2000;" horiz-adv-x="1024" />
<glyph unicode="&#x2001;" horiz-adv-x="2048" />
<glyph unicode="&#x2002;" horiz-adv-x="1024" />
<glyph unicode="&#x2003;" horiz-adv-x="2048" />
<glyph unicode="&#x2004;" horiz-adv-x="682" />
<glyph unicode="&#x2005;" horiz-adv-x="512" />
<glyph unicode="&#x2006;" horiz-adv-x="341" />
<glyph unicode="&#x2007;" />
<glyph unicode="&#x2008;" horiz-adv-x="563" />
<glyph unicode="&#x2009;" horiz-adv-x="204" />
<glyph unicode="&#x200a;" horiz-adv-x="20" />
<glyph unicode="&#x200b;" horiz-adv-x="0" />
<glyph unicode="&#x200c;" horiz-adv-x="0" />
<glyph unicode="&#x200d;" horiz-adv-x="0" />
<glyph unicode="&#x200e;" horiz-adv-x="682" />
<glyph unicode="&#x200f;" horiz-adv-x="682" />
<glyph unicode="&#x2010;" horiz-adv-x="563" d="M28 359v314h507v-314h-507z" />
<glyph unicode="&#x2011;" horiz-adv-x="563" d="M28 359v314h507v-314h-507z" />
<glyph unicode="&#x2012;" d="M28 359v314h1145v-314h-1145z" />
<glyph unicode="&#x2013;" d="M108 359v314h984v-314h-984z" />
<glyph unicode="&#x2014;" horiz-adv-x="1365" d="M-90 359v314h1544v-314h-1544z" />
<glyph unicode="&#x2015;" horiz-adv-x="1365" d="M-90 359v314h1544v-314h-1544z" />
<glyph unicode="&#x2016;" horiz-adv-x="2048" d="M1395 -341v1706h283v-1706h-283zM371 -341v1706h283v-1706h-283z" />
<glyph unicode="&#x2017;" horiz-adv-x="1024" d="M0 -99h1024v-159h-1024v159zM0 -339h1024v-159h-1024v159z" />
<glyph unicode="&#x2018;" horiz-adv-x="563" d="M109 775v288l188 302h157l-137 -271h137v-319h-345z" />
<glyph unicode="&#x2019;" horiz-adv-x="563" d="M109 775l138 272h-138v318h345v-287l-187 -303h-158z" />
<glyph unicode="&#x201a;" horiz-adv-x="563" d="M109 0v318h345v-287l-187 -303h-158l138 272h-138z" />
<glyph unicode="&#x201b;" horiz-adv-x="563" d="M109 1078v287h345v-318h-137l137 -272h-157z" />
<glyph unicode="&#x201c;" horiz-adv-x="939" d="M102 781v299l175 285h158l-140 -267h140v-317h-333zM505 781v299l178 285h154l-137 -267h137v-317h-332z" />
<glyph unicode="&#x201d;" horiz-adv-x="939" d="M102 781l136 268h-136v316h330v-299l-177 -285h-153zM503 781l140 268h-140v316h334v-299l-175 -285h-159z" />
<glyph unicode="&#x201e;" horiz-adv-x="939" d="M102 0v317h330v-299l-177 -286h-153l136 268h-136zM503 0v317h334v-299l-175 -286h-159l140 268h-140z" />
<glyph unicode="&#x2020;" d="M79 736v299h337v330h369v-330h337v-299h-337v-1057h-369v1057h-337z" />
<glyph unicode="&#x2021;" d="M79 23v299h337v414h-337v299h337v330h369v-330h337v-299h-337v-414h337v-299h-337v-344h-369v344h-337z" />
<glyph unicode="&#x2022;" horiz-adv-x="1365" d="M401 696q0 118 82.5 202t199.5 84q116 0 198.5 -84t82.5 -202q0 -117 -82.5 -201.5t-198.5 -84.5q-117 0 -199.5 84.5t-82.5 201.5z" />
<glyph unicode="&#x2024;" horiz-adv-x="563" d="M92 0v365h380v-365h-380z" />
<glyph unicode="&#x2025;" horiz-adv-x="1126" d="M655 0v365h380v-365h-380zM92 0v365h380v-365h-380z" />
<glyph unicode="&#x2026;" horiz-adv-x="1754" d="M102 0v365h380v-365h-380zM686 0v365h381v-365h-381zM1272 0v365h380v-365h-380z" />
<glyph unicode="&#x202a;" horiz-adv-x="0" />
<glyph unicode="&#x202f;" horiz-adv-x="375" />
<glyph unicode="&#x2030;" horiz-adv-x="2131" d="M61 1026q0 163 76.5 256.5t203.5 93.5q132 0 204 -99.5t72 -256.5q0 -160 -77 -253.5t-203 -93.5q-127 0 -201.5 96.5t-74.5 256.5zM216 0l835 1365h183l-829 -1365h-189zM270 1034q0 -119 14.5 -165.5t53.5 -46.5q71 0 71 200q0 91 -13.5 148t-56.5 57q-69 0 -69 -193z M839 343q0 163 76 257t203 94q123 0 199.5 -93.5t76.5 -263.5q0 -159 -77 -253t-203 -94t-200.5 96.5t-74.5 256.5zM1048 353q0 -122 14.5 -168t53.5 -46q71 0 71 200q0 91 -13 148.5t-56 57.5q-70 0 -70 -192zM1515 343q0 163 76 257t203 94q133 0 204 -100.5t71 -256.5 q0 -159 -76.5 -253t-202.5 -94q-121 0 -198 93t-77 260zM1724 353q0 -139 18 -176.5t50 -37.5q71 0 71 200q0 91 -13.5 148.5t-56.5 57.5q-69 0 -69 -192z" />
<glyph unicode="&#x2032;" horiz-adv-x="461" d="M67 789l141 576h295l-241 -576h-195z" />
<glyph unicode="&#x2033;" horiz-adv-x="845" d="M53 789l141 576h295l-241 -576h-195zM478 789l142 576h295l-241 -576h-196z" />
<glyph unicode="&#x2034;" horiz-adv-x="1383" d="M989 789l141 576h295l-241 -576h-195zM528 789l141 576h295l-241 -576h-195zM67 789l141 576h295l-241 -576h-195z" />
<glyph unicode="&#x2035;" horiz-adv-x="1024" d="M206 1327l73 195l457 -224l-52 -137z" />
<glyph unicode="&#x2036;" horiz-adv-x="2048" d="M1230 1327l73 195l457 -224l-52 -137zM206 1327l73 195l457 -224l-52 -137z" />
<glyph unicode="&#x2037;" horiz-adv-x="3072" d="M2254 1327l73 195l457 -224l-52 -137zM1230 1327l73 195l457 -224l-52 -137zM206 1327l73 195l457 -224l-52 -137z" />
<glyph unicode="&#x2039;" horiz-adv-x="452" d="M62 491l173 293h142l-106 -293l106 -271h-142z" />
<glyph unicode="&#x203a;" horiz-adv-x="452" d="M75 220l106 292l-106 272h142l173 -272l-173 -292h-142z" />
<glyph unicode="&#x203c;" horiz-adv-x="1199" d="M89 1365h474l-114 -905h-253zM130 0v365h386v-365h-386zM643 1365h473l-113 -905h-253zM683 0v365h387v-365h-387z" />
<glyph unicode="&#x203e;" d="M-42 1795v74h1286v-74h-1286z" />
<glyph unicode="&#x2044;" horiz-adv-x="218" d="M-393 0l834 1365h170l-829 -1365h-175z" />
<glyph unicode="&#x2047;" horiz-adv-x="2238" d="M1140 917q84 469 545 469q232 0 366 -122.5t134 -303.5q0 -80 -26.5 -146t-68 -108.5t-134.5 -110.5q-71 -52 -90.5 -75.5t-26.5 -68.5h-332q0 121 21.5 174.5t88.5 113.5q101 91 126 135.5t25 103.5q0 62 -33 95.5t-82 33.5q-145 0 -146 -230zM1494 0v365h383v-365h-383 zM21 917q84 469 545 469q232 0 366 -122.5t134 -303.5q0 -80 -26.5 -146t-68 -108.5t-134.5 -110.5q-71 -52 -90.5 -75.5t-26.5 -68.5h-332q0 121 21.5 174.5t88.5 113.5q101 91 126 135.5t25 103.5q0 62 -33 95.5t-82 33.5q-145 0 -146 -230zM375 0v365h383v-365h-383z" />
<glyph unicode="&#x2048;" horiz-adv-x="1765" d="M1208 1365h474l-114 -905h-253zM1249 0v365h386v-365h-386zM21 917q84 469 545 469q232 0 366 -122.5t134 -303.5q0 -80 -26.5 -146t-68 -108.5t-134.5 -110.5q-71 -52 -90.5 -75.5t-26.5 -68.5h-332q0 121 21.5 174.5t88.5 113.5q101 91 126 135.5t25 103.5 q0 62 -33 95.5t-82 33.5q-145 0 -146 -230zM375 0v365h383v-365h-383z" />
<glyph unicode="&#x2049;" horiz-adv-x="1765" d="M667 917q84 469 545 469q232 0 366 -122.5t134 -303.5q0 -80 -26.5 -146t-68 -108.5t-134.5 -110.5q-71 -52 -90.5 -75.5t-26.5 -68.5h-332q0 121 21.5 174.5t88.5 113.5q101 91 126 135.5t25 103.5q0 62 -33 95.5t-82 33.5q-145 0 -146 -230zM1021 0v365h383v-365h-383z M89 1365h474l-114 -905h-253zM130 0v365h386v-365h-386z" />
<glyph unicode="&#x2057;" horiz-adv-x="1844" d="M1450 789l141 576h295l-241 -576h-195zM989 789l141 576h295l-241 -576h-195zM528 789l141 576h295l-241 -576h-195zM67 789l141 576h295l-241 -576h-195z" />
<glyph unicode="&#x205f;" horiz-adv-x="469" />
<glyph unicode="&#x2060;" horiz-adv-x="0" />
<glyph unicode="&#x20a3;" horiz-adv-x="1120" d="M10 163v201h109v1001h987v-325h-579v-222h445v-307h-445v-147h211v-201h-211v-163h-408v163h-109z" />
<glyph unicode="&#x20a4;" d="M38 0v294h60q101 0 145.5 53t44.5 128q0 22 -4 55h-186v137h164l-17 96h-147v136h124q-8 64 -8 107q0 192 152 302.5t349 110.5q332 0 437 -288l-302 -107q-41 112 -122 112q-50 0 -80.5 -32t-30.5 -87q0 -40 13 -118h220v-136h-198q6 -38 13 -96h185v-137h-185 q-19 -141 -139 -236h169q153 0 170 127l321 -62q-33 -160 -156 -259.5t-303 -99.5h-689z" />
<glyph unicode="&#x20a7;" horiz-adv-x="2379" d="M153 0v1365h471q218 0 331.5 -50t180 -153t66.5 -231q0 -195 -136 -315t-363 -120h-159v-496h-391zM538 789h99q185 0 185 136q0 128 -171 128h-113v-264zM1158 447v167h107l16 191l238 8l-6 -199h126v-167h-126v-214q0 -35 9.5 -45.5t37.5 -10.5q29 0 79 13v-182 q-82 -16 -156 -16q-231 0 -231 202v253h-94zM1682 175l204 28q15 -67 132 -67q90 0 90 37q0 17 -20 27t-136 24q-238 31 -238 191q0 92 83 151.5t226 59.5q233 0 300 -162l-200 -37q-27 54 -110 54q-68 0 -68 -32q0 -17 20.5 -25t112.5 -19q100 -13 150 -31t85 -63t35 -103 q0 -98 -87.5 -159t-256.5 -61q-252 0 -322 187z" />
<glyph unicode="&#x20a8;" horiz-adv-x="2498" d="M1428 288l315 43q27 -110 214 -110q155 0 155 60q0 26 -30 40.5t-142 29.5q-310 43 -387 134.5t-77 203.5q0 156 130 252.5t341 96.5q370 0 472 -267l-302 -57q-42 90 -177 90q-64 0 -95.5 -17.5t-31.5 -34.5q0 -50 96 -61q250 -28 339 -57t152 -106t63 -186 q0 -167 -139.5 -265t-384.5 -98q-413 0 -511 309zM119 0v1365h713q236 0 366.5 -110.5t130.5 -291.5q0 -118 -48 -208.5t-194 -159.5l247 -595h-465l-199 522h-132v-522h-419zM538 814h179q79 0 127 33t48 97q0 131 -161 131h-193v-261z" />
<glyph unicode="&#x2122;" horiz-adv-x="1638" d="M-11 1168v197h609v-197h-172v-581h-265v581h-172zM649 587v778h353l112 -375l106 375h356v-778h-259v475l-134 -475h-181l-140 478v-478h-213z" />
<glyph unicode="&#x2202;" horiz-adv-x="1012" d="M66 305q0 239 166.5 420.5t383.5 181.5q222 0 312 -190h4q10 144 10 186q0 175 -92.5 276t-253.5 101q-194 0 -301 -160h-45q131 303 379 303q161 0 263.5 -127t102.5 -376q0 -358 -164.5 -654.5t-427.5 -296.5q-155 0 -246 91t-91 245zM233 264q0 -108 54 -172.5 t143 -64.5q136 0 279.5 162.5t201.5 439.5q-81 225 -284 225q-178 0 -286 -190.5t-108 -399.5z" />
<glyph unicode="&#x2206;" horiz-adv-x="1253" d="M12 0l656 1409l577 -1409h-1233zM147 100h844l-397 959z" />
<glyph unicode="&#x220f;" horiz-adv-x="1686" d="M51 -160q122 0 160.5 41t38.5 125v1282q0 101 -48.5 152t-146.5 51v47h1586v-47q-98 0 -146.5 -51t-48.5 -152v-1282q0 -84 38.5 -125t160.5 -41v-47h-629v47q120 0 159.5 41t39.5 125v1419h-734v-1419q0 -84 39.5 -125t159.5 -41v-47h-629v47z" />
<glyph unicode="&#x2211;" horiz-adv-x="1460" d="M29 -205l714 815l-710 930q70 -7 123 -10.5t90 -3.5h1018l12 -326h-41q-31 102 -52.5 141t-81.5 66q-30 13 -74.5 20t-104.5 7h-539l559 -734l-602 -694h760q127 0 177.5 52t98.5 180h47q-32 -125 -54 -240t-34 -219q-63 11 -102.5 16.5t-54.5 5.5h-1031q-20 0 -59 -3 t-59 -3z" />
<glyph unicode="&#x221a;" horiz-adv-x="1124" d="M20 922l299 147l404 -825l260 1634l72 -10l-307 -1946l-498 1028l-197 -96z" />
<glyph unicode="&#x221e;" horiz-adv-x="1460" d="M53 528q0 157 89 262t218 105q80 0 149 -42t144 -185q71 169 159 222.5t212 53.5q161 0 272 -116.5t111 -301.5q0 -186 -111.5 -303t-238.5 -117q-95 0 -170.5 63t-165.5 224q-117 -233 -324 -233q-149 0 -246.5 104.5t-97.5 263.5zM109 530q0 -123 66.5 -207.5 t162.5 -84.5q82 0 149.5 65t126.5 254l11 33q-96 215 -267 215q-110 0 -179.5 -76.5t-69.5 -198.5zM750 465q64 -138 134.5 -201t176.5 -63q126 0 207.5 91t81.5 234q0 140 -84 240t-199 100q-55 0 -97.5 -21.5t-74.5 -62t-64 -116.5z" />
<glyph unicode="&#x222b;" horiz-adv-x="561" d="M10 -99q0 38 25.5 65t64.5 27q34 0 65.5 -33t44.5 -33q25 0 39.5 44.5t14.5 153.5q0 37 -6 197t-6 562q0 481 17 638.5t41 215.5q29 70 69 104t84 34q57 0 98 -32.5t41 -83.5q0 -39 -29.5 -64t-75.5 -25q-37 0 -60 25t-44 25q-18 0 -27.5 -14.5t-9.5 -43.5 q0 -34 19.5 -256t19.5 -551q0 -505 -30 -709.5t-79 -282.5q-26 -41 -67.5 -62t-85.5 -21q-49 0 -86 35t-37 85z" />
<glyph unicode="&#x2248;" horiz-adv-x="1124" d="M51 174q20 153 93.5 236.5t181.5 83.5q47 0 112 -21.5t219 -103.5q118 -62 193 -62q144 0 172 180h51q-21 -155 -95.5 -238t-186.5 -83q-96 0 -268.5 97t-246.5 97q-149 0 -178 -186h-47zM51 561q20 154 93.5 238t181.5 84q47 0 107 -19.5t224 -107.5q118 -62 193 -62 q144 0 172 180h51q-21 -155 -95.5 -238t-186.5 -83q-97 0 -304 117q-139 78 -211 78q-149 0 -178 -187h-47z" />
<glyph unicode="&#x2260;" horiz-adv-x="1124" d="M31 279v112h385l157 285h-542v112h606l186 336l101 -57l-156 -279h338v-112h-399l-160 -285h559v-112h-621l-184 -330l-100 57l151 273h-321z" />
<glyph unicode="&#x2264;" horiz-adv-x="1124" d="M59 0v112h1018v-112h-1018zM59 711v127l1018 471v-127l-887 -408l887 -407v-127z" />
<glyph unicode="&#x2265;" horiz-adv-x="1124" d="M59 0v112h1018v-112h-1018zM59 240v127l887 407l-887 408v127l1018 -471v-127z" />
<glyph unicode="&#x25ca;" horiz-adv-x="1012" d="M46 763l397 763h122l397 -763l-397 -763h-122zM169 763l335 -652l335 652l-335 652z" />
<glyph unicode="&#xe000;" horiz-adv-x="1014" d="M0 1015h1015v-1015h-1015v1015z" />
<glyph unicode="&#xfb01;" horiz-adv-x="1274" d="M37 758v259h121q0 160 28.5 239.5t119 128.5t245.5 49q58 0 121 -7v-262l-15 1q-49 0 -77.5 -17.5t-36.5 -42.5t-8 -89h137v-259h-137v-758h-377v758h-121zM776 0v1017h393v-1017h-393zM776 1092v314h393v-314h-393z" />
<glyph unicode="&#xfb02;" horiz-adv-x="1273" d="M38 758v259h120q-1 35 -1 51q0 192 91.5 279t300.5 87q60 0 122 -7v-262q-83 0 -109.5 -24.5t-26.5 -99.5v-24h136v-259h-136v-758h-377v758h-120zM775 0v1365h394v-1365h-394z" />
<glyph unicode="&#xfb03;" horiz-adv-x="2215" d="M1711 0v1017h399v-1017h-399zM1711 1092v316h399v-316h-399zM810 758v259h152q0 126 11 186.5t55 116t118 85t199 29.5q134 0 257 -21v-261q-95 13 -142 13t-86 -19t-39 -93v-36h260v-259h-257v-758h-376v758h-152zM7 758v259h152q0 126 11 186.5t55 116t118 85t199 29.5 q134 0 257 -21v-261q-95 13 -142 13t-86 -19t-39 -93v-36h260v-259h-257v-758h-376v758h-152z" />
<glyph unicode="&#xfb04;" horiz-adv-x="2209" d="M1711 0v1365h393v-1365h-393zM810 758v259h152q0 126 11 186.5t55 116t118 85t199 29.5q134 0 257 -21v-261q-95 13 -142 13t-86 -19t-39 -93v-36h260v-259h-257v-758h-376v758h-152zM7 758v259h152q0 126 11 186.5t55 116t118 85t199 29.5q134 0 257 -21v-261 q-95 13 -142 13t-86 -19t-39 -93v-36h260v-259h-257v-758h-376v758h-152z" />
</font>
</defs>
</svg>
